<svg xmlns:dc="http://purl.org/dc/elements/1.1/" xmlns:cc="http://creativecommons.org/ns#" xmlns:rdf="http://www.w3.org/1999/02/22-rdf-syntax-ns#" xmlns:svg="http://www.w3.org/2000/svg" xmlns="http://www.w3.org/2000/svg" viewBox="0 0 1866.6667 1306.6667" height="1306.6667" width="1866.6667" xml:space="preserve" id="svg2" version="1.1">
  <metadata id="metadata8">
    <rdf:RDF>
      <cc:Work rdf:about="">
        <dc:format>
          image/svg+xml
        </dc:format>
        <dc:type rdf:resource="http://purl.org/dc/dcmitype/StillImage"/>
      </cc:Work>
    </rdf:RDF>
  </metadata>
  <defs id="defs6">
    <clipPath id="clipPath22" clipPathUnits="userSpaceOnUse">
      <path id="path20" d="M11071.1 4919.99C11071.1 2550.12 9149.88 628.941 6780 628.941c-2369.88 0-4291.05 1921.179-4291.05 4291.049 0 2369.89 1921.17 4291.06 4291.05 4291.06 2369.88 0 4291.1-1921.17 4291.1-4291.06"/>
    </clipPath>
    <clipPath id="clipPath96" clipPathUnits="userSpaceOnUse">
      <path id="path94" d="M5730 2470H7790V6110H5730Z"/>
    </clipPath>
  </defs>
  <g transform="matrix(1.3333333,0,0,-1.3333333,0,1306.6667)" id="g10">
    <g transform="scale(0.1)" id="g12">
      <path id="path14" d="M11071 4920C11071 2550.12 9149.88 628.961 6780 628.961 4410.12 628.961 2488.95 2550.12 2488.95 4920c0 2369.88 1921.17 4291.05 4291.05 4291.05 2369.88 0 4291-1921.17 4291-4291.05" style="fill-opacity:1;fill-rule:nonzero;fill:#a5dcf0"/>
      <g id="g16">
        <g clip-path="url(#clipPath22)" id="g18">
          <path id="path24" d="m10942.8 7274.95c5.7-11.36 11.4-22.75 17-34.16 10.8-22.15 21.6-44.4 32-66.74 5.9-12.32 11.7-24.64 17.4-37.05 9.9-21.42 19.6-42.84 29.2-64.45 6.4-14.34 12.7-28.82 19-43.3 8.5-19.77 16.9-39.62 25.2-59.57 6.8-16.46 13.6-33.01 20.3-49.65 7.3-18.07 14.4-36.22 21.5-54.42 7.4-19.21 14.7-38.43 21.9-57.83 5.8-15.45 11.5-31.03 17.1-46.57 7.7-21.46 15.4-42.93 22.7-64.49 4.7-13.7 9.4-27.39 14-41.14 7.8-23.72 15.6-47.4 23.1-71.29 3.7-11.73 7.4-23.54 11.1-35.32 8-26.1 15.7-52.21 23.2-78.5 2.9-9.66 5.6-19.27 8.3-28.97 8.1-28.49 15.8-57.17 23.3-85.95l6.5-25.01c7.7-30.25 15.1-60.68 22.2-91.11l4.6-19.86c7.4-32.45 14.6-65.09 21.3-97.82H8433.28v3.73c0 291.16 229.24 527.24 511.98 527.24 81.69 0 158.92-19.71 227.45-54.78 150.97 224.04 410.32 371.92 704.93 371.92 103.8 0 203.26-18.39 295.06-51.94 190.3 200.97 462.8 334.92 769.5 358.09l0.6-1.06" style="fill-opacity:1;fill-rule:evenodd;fill:#fff"/>
          <path id="path26" d="M7790.28 578.352C7450.63 500.441 7096.99 459.148 6733.76 459.148c-1291.61 0-2461.68 520.594-3312.27 1363.222l1230.66 1230.66c182.39 182.45 481 182.45 663.45 0L7790.28 578.352" style="fill-opacity:1;fill-rule:evenodd;fill:#ffdc24"/>
          <path id="path28" d="M6046.7 2330.58 6596.52 1780.85 5309.15 704.969 5980.22 1929.19 6046.7 2330.58" style="fill-opacity:1;fill-rule:evenodd;fill:#e8bf15"/>
          <path id="path30" d="M11261.9 3876.63C10701.1 1904.11 8885.79 459.148 6733.76 459.148c-383.75 0-756.64 46.25-1113.81 132.954 6.25 111.289 51.58 220.777 136.07 305.269L9666.88 4808.27c182.49 182.35 481.02 182.35 663.52 0l931.5-931.64" style="fill-opacity:1;fill-rule:evenodd;fill:#ffdc24"/>
          <path id="path32" d="M11261.9 3876.63C10933.2 2720.6 10173.5 1746.07 9167.84 1137.04l847.66 2394.61 418.1-2.58-368.7 1411.26c97.3-13.74 191-57.78 265.5-132.06l931.5-931.64" style="fill-opacity:1;fill-rule:evenodd;fill:#e8bf15"/>
          <path id="path34" d="m9029.38 4170.74 637.5 637.53c182.49 182.35 481.02 182.35 663.52 0l637.5-637.53H9029.38" style="fill-opacity:1;fill-rule:evenodd;fill:#fff"/>
          <path id="path36" d="m2845.61 4757.06c-275.81 0-503.63-205.66-538.74-471.95h2838.24c-28.46 273.45-259.63 486.71-540.45 486.71-18.85 0-37.46-1.02-55.76-2.94-148.43 215.58-396.79 356.84-678.12 356.84-321.17 0-599.42-184.19-734.98-452.69-83.98 53.23-183.5 84.03-290.19 84.03" style="fill-opacity:1;fill-rule:evenodd;fill:#fff"/>
          <path id="path38" d="m3305.04 7825.61c-131.88 0-240.81-98.34-257.6-225.66h1357.1c-13.61 130.75-124.14 232.72-258.42 232.72-9.01 0-17.91-0.49-26.66-1.41-70.97 103.08-189.72 170.62-324.24 170.62-153.57 0-286.61-88.07-351.43-216.45-40.15 25.45-87.74 40.18-138.75 40.18" style="fill-opacity:1;fill-rule:evenodd;fill:#fff"/>
          <path id="path40" d="m9286.99 8227.55c-131.87 0-240.81-98.34-257.6-225.67h1357.11c-13.6 130.76-124.2 232.72-258.4 232.72-9 0-17.9-0.48-26.7-1.4-71 103.08-189.71 170.62-324.23 170.62-153.57 0-286.6-88.07-351.43-216.45-40.15 25.45-87.73 40.18-138.75 40.18" style="fill-opacity:1;fill-rule:evenodd;fill:#fff"/>
        </g>
      </g>
      <path id="path42" d="M6340 20H8070V1730H6340Z" style="fill-opacity:1;fill-rule:nonzero;fill:#dcca9f"/>
      <path id="path44" d="M8070 1730H6340v-17.4c0 0 403.34-376.9 990.96-403.95 274.58-12.63 529.04 14.6 739.04 58.23V1730" style="fill-opacity:1;fill-rule:nonzero;fill:#ae9269"/>
      <path id="path46" d="m7607.71 3493.66c-88.38 250.36-1004.32 1187.43-1076.4 1259.51l-682.49 942.36c-108.95 108.95-168.71 77.3-225.09 20.93L5521.65 5614.4c-56.36-56.39-56.36-56.39 20.94-225.1 0 0 367.49-691.54 319.79-723.21l-232.11 320.49c-92.46 92.46-143.16 65.6-191.01 17.77l-86.62-86.61c-47.84-47.86-74.67-98.57 17.78-191.01l277.67-383.4c-5.03-15.22-9.81-30.78-14.36-46.69l-3.46 4.79c-92.46 92.45-143.16 65.59-191.01 17.76l-86.62-86.6c-47.84-47.86-74.67-98.58 17.78-191.02l167.86-231.78c-39.86 8.41-69.98-12.84-99.02-41.88l-86.62-86.6c-47.84-47.85-74.67-98.58 17.78-191.02l219-302.38c35.53-325.79 102.43-648.24 184.24-904.53 272.34-853.13 1814.48-790.14 1814.48-790.14 0 0 24.09 516.72 123.5 791.92 99.43 275.17 21.15 854.17-103.93 1208.5" style="fill-opacity:1;fill-rule:nonzero;fill:#cab885"/>
      <path id="path48" d="m5864.94 5929.34c0-11.01-9-20-20-20h-231.03c-11 0-20 8.99-20 20v163.02c0 11 9 20 20 20h231.03c11 0 20-9 20-20v-163.02" style="fill-opacity:1;fill-rule:nonzero;fill:#fff"/>
      <path id="path50" d="m5864.94 5929.34h-15c-0.01-1.37-0.53-2.55-1.48-3.52-0.98-0.96-2.16-1.48-3.52-1.48h-231.03c-1.37 0-2.55 0.52-3.52 1.48-0.96 0.97-1.48 2.15-1.48 3.52v163.02c0 1.37 0.52 2.55 1.48 3.52 0.97 0.96 2.15 1.48 3.52 1.48h231.03c1.36 0 2.54-0.52 3.52-1.48 0.95-0.97 1.47-2.15 1.48-3.52v-163.02h30v163.02c-0.06 19.35-15.65 34.95-35 35h-231.03c-19.35-0.05-34.95-15.65-35-35v-163.02c0.05-19.35 15.65-34.95 35-35h231.03c19.35 0.05 34.94 15.65 35 35h-15" style="fill-opacity:1;fill-rule:nonzero;fill:#d2d3d2"/>
      <path id="path52" d="m5864.94 5340c0-11-9-20-20-20h-230.17c-11.01 0-20 9-20 20v319.55c0 11 8.99 20 20 20h230.17c11 0 20-9 20-20V5340" style="fill-opacity:1;fill-rule:nonzero;fill:#fff"/>
      <path id="path54" d="m5864.94 5340h-15c-0.01-1.36-0.53-2.54-1.48-3.51-0.98-0.96-2.16-1.48-3.52-1.48h-230.17c-1.37 0-2.55 0.52-3.52 1.48-0.96 0.97-1.48 2.15-1.48 3.51v319.55c0 1.36 0.52 2.54 1.48 3.51 0.97 0.96 2.15 1.48 3.52 1.49h230.17c1.36-0.01 2.54-0.53 3.52-1.49 0.95-0.97 1.47-2.15 1.48-3.51V5340h30v319.55c-0.06 19.35-15.65 34.94-35 35h-230.17c-19.35-0.06-34.95-15.65-35-35V5340c0.05-19.34 15.65-34.94 35-35h230.17c19.35 0.06 34.94 15.66 35 35h-15" style="fill-opacity:1;fill-rule:nonzero;fill:#d2d3d2"/>
      <path id="path56" d="m7922.33 5350c0-16.49-13.49-29.99-30-29.99h-210.1c-16.51 0-30 13.5-30 29.99v299.46c0 16.5 13.49 30 30 30h210.1c16.51 0 30-13.5 30-30V5350" style="fill-opacity:1;fill-rule:nonzero;fill:#fff"/>
      <path id="path58" d="m7922.33 5350h-15c0-4.11-1.65-7.79-4.42-10.58-2.78-2.76-6.46-4.41-10.58-4.41h-210.1c-4.12 0-7.8 1.65-10.59 4.41-2.76 2.79-4.41 6.47-4.41 10.58v299.46c0 4.12 1.65 7.8 4.41 10.58 2.79 2.77 6.47 4.42 10.59 4.42h210.1c4.12 0 7.8-1.65 10.58-4.42 2.77-2.78 4.42-6.46 4.42-10.58V5350h30v299.46c-0.05 24.85-20.14 44.95-45 45h-210.1c-24.86-0.05-44.95-20.15-45.01-45l0.01-299.46c0.05-24.84 20.14-44.94 45-44.99h210.1c24.86 0.05 44.95 20.15 45.01 44.99h-15.01" style="fill-opacity:1;fill-rule:nonzero;fill:#d2d3d2"/>
      <path id="path60" d="m5865.85 4896.27c0-11-9-20-20-20h-230.16c-11 0-20 9-20 20v319.53c0 11 9 20 20 20h230.16c11 0 20-9 20-20v-319.53" style="fill-opacity:1;fill-rule:nonzero;fill:#fff"/>
      <path id="path62" d="m5865.85 4896.27h-15c0-1.36-0.53-2.54-1.48-3.52-0.98-0.95-2.16-1.48-3.52-1.48h-230.16c-1.36 0-2.54 0.53-3.51 1.48-0.96 0.98-1.48 2.16-1.49 3.52v319.53c0.01 1.37 0.53 2.55 1.48 3.52 0.98 0.95 2.16 1.48 3.52 1.48h230.16c1.36 0 2.54-0.53 3.52-1.48 0.95-0.97 1.48-2.15 1.48-3.52v-319.53h30v319.53c-0.06 19.35-15.65 34.94-35 35h-230.16c-19.35-0.06-34.94-15.65-35-35v-319.53c0.06-19.35 15.65-34.94 35-35h230.16c19.35 0.06 34.94 15.65 35 35h-15" style="fill-opacity:1;fill-rule:nonzero;fill:#d2d3d2"/>
      <path id="path64" d="m7887.89 2206.86c0-175.85-142.57-318.39-318.4-318.39H5947.25c-175.85 0-318.41 142.54-318.41 318.39v4120.11c0 175.86 142.56 318.41 318.41 318.41h1622.24c175.83 0 318.4-142.55 318.4-318.41V2206.86" style="fill-opacity:1;fill-rule:nonzero;fill:#fff"/>
      <path id="path66" d="m7887.89 2206.86h-15c-0.01-83.83-33.94-159.59-88.87-214.54-54.95-54.92-130.71-88.85-214.53-88.85H5947.26c-83.84 0-159.6 33.93-214.55 88.85-54.93 54.95-88.86 130.71-88.87 214.54v4120.11c0.01 83.84 33.94 159.59 88.87 214.54 54.96 54.93 130.71 88.86 214.55 88.87h1622.23c83.82-0.01 159.58-33.94 214.53-88.87 54.93-54.95 88.86-130.7 88.87-214.54V2206.86h30v4120.11c-0.01 184.15-149.28 333.4-333.4 333.41H5947.26c-184.14-0.01-333.41-149.26-333.42-333.41V2206.86c0.01-184.15 149.28-333.38 333.42-333.39h1622.23c184.12 0.01 333.39 149.24 333.4 333.39h-15" style="fill-opacity:1;fill-rule:nonzero;fill:#d2d3d2"/>
      <path id="path68" d="m7810 2460c0-16.57-13.43-30-30-30H5730c-16.57 0-30 13.43-30 30v3660c0 16.57 13.43 30 30 30h2050c16.57 0 30-13.43 30-30V2460" style="fill-opacity:1;fill-rule:nonzero;fill:#1e1c1b"/>
      <path id="path70" d="m7810 2460h-10c-0.02-11.05-8.95-19.98-20-20H5730c-11.04 0.02-19.98 8.96-20 20v3660c0.02 11.04 8.96 19.98 20 20h2050c11.05-0.02 19.98-8.96 20-20V2460h20v3660c-0.01 22.09-17.9 39.99-40 40H5730c-22.1-0.01-39.99-17.9-40-40V2460c0.01-22.1 17.91-39.99 40-40h2050c22.1 0 40 17.9 40 40h-10" style="fill-opacity:1;fill-rule:nonzero;fill:#dedddb"/>
      <path id="path72" d="m6332.65 6389.14c0 22.4 18.17 40.59 40.58 40.59 22.42 0 40.59-18.19 40.59-40.59 0-22.42-18.17-40.59-40.59-40.59-22.41 0-40.58 18.17-40.58 40.59" style="fill-opacity:1;fill-rule:nonzero;fill:#f4f4f5"/>
      <path id="path74" d="m6332.65 6389.14h7.5c0.03 18.26 14.82 33.05 33.08 33.09 18.27-0.04 33.05-14.83 33.09-33.09-0.04-18.27-14.81-33.05-33.09-33.09-18.26 0.04-33.05 14.82-33.08 33.09h-15c0.01-26.56 21.52-48.08 48.08-48.09 26.56 0.01 48.08 21.53 48.09 48.09-0.01 26.55-21.52 48.08-48.09 48.09-26.56-0.01-48.07-21.54-48.08-48.09h7.5" style="fill-opacity:1;fill-rule:nonzero;fill:#dedddb"/>
      <path id="path76" d="m6726.33 6551.02c0 13.69 11.11 24.8 24.81 24.8 13.69 0 24.81-11.11 24.81-24.8 0-13.7-11.12-24.81-24.81-24.81-13.7 0-24.81 11.11-24.81 24.81" style="fill-opacity:1;fill-rule:nonzero;fill:#f4f4f5"/>
      <path id="path78" d="m6726.33 6551.02h7.5c0.02 9.54 7.75 17.28 17.31 17.3 9.55-0.02 17.29-7.76 17.31-17.3-0.02-9.55-7.76-17.29-17.31-17.31-9.55 0.02-17.29 7.76-17.31 17.31h-15c0-17.85 14.47-32.3 32.31-32.31 17.84 0.01 32.3 14.46 32.31 32.31-0.01 17.84-14.47 32.29-32.31 32.3-17.84-0.01-32.31-14.46-32.31-32.3h7.5" style="fill-opacity:1;fill-rule:nonzero;fill:#dedddb"/>
      <path id="path80" d="m6566.3 2158.16c0 102.08 82.76 184.84 184.84 184.84 102.06 0 184.84-82.76 184.84-184.84 0-102.08-82.78-184.83-184.84-184.83-102.08 0-184.84 82.75-184.84 184.83" style="fill-opacity:1;fill-rule:nonzero;fill:#cdccca"/>
      <path id="path82" d="m6589.35 2158.16c0 89.35 72.43 161.78 161.79 161.78 89.36 0 161.77-72.43 161.77-161.78 0-89.33-72.41-161.78-161.77-161.78-89.36 0-161.79 72.45-161.79 161.78" style="fill-opacity:1;fill-rule:nonzero;fill:#fff"/>
      <path id="path84" d="m6920 6401.86c0-6.55-5.31-11.86-11.86-11.86h-336.28c-6.55 0-11.86 5.31-11.86 11.86v6.28c0 6.55 5.31 11.86 11.86 11.86h336.28c6.55 0 11.86-5.31 11.86-11.86v-6.28" style="fill-opacity:1;fill-rule:nonzero;fill:#e8e7e6"/>
      <path id="path86" d="m6920 6401.86h-10c0-1.02-0.85-1.86-1.86-1.86h-336.28c-1.02 0-1.86 0.84-1.86 1.86v6.28c0 1.02 0.84 1.86 1.86 1.86h336.28c1.01 0 1.86-0.84 1.86-1.86v-6.28h20v6.28c-0.01 12.08-9.78 21.85-21.86 21.86h-336.28c-12.09-0.01-21.85-9.79-21.86-21.86v-6.28c0.01-12.07 9.77-21.85 21.86-21.86h336.28c12.08 0.01 21.85 9.78 21.86 21.86h-10" style="fill-opacity:1;fill-rule:nonzero;fill:#dedddb"/>
      <path id="path88" d="M5730 2470H7790V6110H5730Z" style="fill-opacity:1;fill-rule:nonzero;fill:#4daea8"/>
      <g id="g90">
        <g clip-path="url(#clipPath96)" id="g92">
          <path id="path98" d="m8153.18 5024.65c2.02-4.01 4.02-8.02 6-12.03 3.82-7.82 7.61-15.66 11.3-23.53 2.08-4.33 4.12-8.68 6.12-13.05 3.47-7.55 6.91-15.1 10.29-22.71 2.25-5.06 4.47-10.16 6.69-15.26 3-6.97 5.96-13.96 8.88-20.99 2.41-5.8 4.79-11.63 7.14-17.5 2.58-6.37 5.11-12.76 7.58-19.18 2.62-6.77 5.2-13.53 7.74-20.37 2.03-5.45 4.04-10.94 6.02-16.41 2.71-7.57 5.41-15.13 8-22.73 1.67-4.83 3.3-9.65 4.92-14.49 2.77-8.36 5.51-16.7 8.15-25.13 1.31-4.13 2.61-8.29 3.9-12.44 2.82-9.2 5.54-18.4 8.2-27.67 0.99-3.4 1.95-6.79 2.91-10.2 2.83-10.04 5.58-20.15 8.19-30.3l2.31-8.8c2.72-10.66 5.31-21.38 7.82-32.1l1.6-7.01c2.63-11.43 5.16-22.94 7.52-34.47H7268.89v1.32c0 102.6 80.78 185.79 180.42 185.79 28.78 0 55.99-6.95 80.14-19.31 53.2 78.95 144.58 131.06 248.4 131.06 36.57 0 71.61-6.48 103.98-18.3 67.06 70.82 163.06 118.02 271.16 126.18l0.19-0.37" style="fill-opacity:1;fill-rule:evenodd;fill:#fff"/>
          <path id="path100" d="m5316.44 5676.26c-1.42-2.83-2.84-5.66-4.24-8.5-2.69-5.52-5.37-11.06-7.98-16.62-1.47-3.06-2.91-6.13-4.32-9.22-2.45-5.33-4.88-10.67-7.27-16.04-1.59-3.58-3.16-7.17-4.73-10.78-2.12-4.92-4.21-9.86-6.27-14.83-1.71-4.09-3.38-8.21-5.04-12.36-1.82-4.5-3.61-9.02-5.36-13.55-1.85-4.78-3.68-9.56-5.47-14.39-1.43-3.85-2.85-7.72-4.25-11.59-1.92-5.35-3.82-10.69-5.65-16.06-1.18-3.41-2.33-6.82-3.48-10.24-1.96-5.9-3.88-11.79-5.75-17.75-0.93-2.91-1.85-5.85-2.76-8.79-1.99-6.5-3.91-12.99-5.79-19.54-0.7-2.4-1.38-4.79-2.06-7.21-2-7.09-3.94-14.23-5.79-21.4l-1.63-6.22c-1.92-7.53-3.75-15.1-5.52-22.68l-1.13-4.95c-1.86-8.07-3.64-16.2-5.31-24.35h724.48v0.94c0 72.47-57.06 131.24-127.45 131.24-20.33 0-39.55-4.91-56.61-13.64-37.58 55.77-102.14 92.58-175.48 92.58-25.83 0-50.58-4.57-73.45-12.92-47.37 50.03-115.19 83.37-191.55 89.13l-0.14-0.26" style="fill-opacity:1;fill-rule:evenodd;fill:#fff"/>
          <path id="path102" d="m7000 2360.18c-187.4-43-382.52-65.77-582.94-65.77-712.63 0-1358.21 287.22-1827.53 752.15l679.01 679.02c100.64 100.65 265.4 100.65 366.06 0L7000 2360.18" style="fill-opacity:1;fill-rule:evenodd;fill:#ffdc24"/>
          <path id="path104" d="m6143.89 3220.4 303.36-303.31-710.31-593.61 370.27 675.45 36.68 221.47" style="fill-opacity:1;fill-rule:evenodd;fill:#e8bf15"/>
          <path id="path106" d="M8197.73 3782.02C7959.6 2944.52 7188.88 2331.03 6275.17 2331.03c-162.93 0-321.26 19.62-472.9 56.44 2.66 47.25 21.89 93.73 57.77 129.61l1660.48 1660.5c77.48 77.42 204.24 77.42 281.71 0l395.5-395.56" style="fill-opacity:1;fill-rule:evenodd;fill:#ffdc24"/>
          <path id="path108" d="m8197.73 3782.02c-139.56-490.84-462.1-904.59-889.1-1163.17l359.9 1016.7 177.52-1.11-156.56 599.2c41.34-5.83 81.14-24.53 112.74-56.06l395.5-395.56" style="fill-opacity:1;fill-rule:evenodd;fill:#e8bf15"/>
          <path id="path110" d="m7249.85 3906.88 270.67 270.7c77.48 77.42 204.24 77.42 281.71 0l270.66-270.7h-823.04" style="fill-opacity:1;fill-rule:evenodd;fill:#fff"/>
          <path id="path112" d="m5299.89 3552.52c-97.18 0-177.47-72.47-189.84-166.31H6110.2c-10.03 96.37-91.49 171.5-190.45 171.5-6.64 0-13.2-0.35-19.65-1.03-52.3 75.97-139.82 125.75-238.95 125.75-113.18 0-211.23-64.91-259-159.52-29.59 18.75-64.66 29.61-102.26 29.61" style="fill-opacity:1;fill-rule:evenodd;fill:#fff"/>
          <path id="path114" d="m7790 5384.75h-226.25c4.77 36.22 35.77 64.2 73.29 64.2 14.51 0 28.05-4.19 39.47-11.43 18.44 36.52 56.29 61.58 99.98 61.58 4.57 0 9.08-0.28 13.51-0.81v-113.54" style="fill-opacity:1;fill-rule:nonzero;fill:#dcf3ee"/>
          <g transform="scale(10)" id="g116">
            <text id="text128" transform="matrix(1,0,0,-1,605.427,502.298)" style="-inkscape-font-specification:Gotham-Bold;fill-opacity:1;fill-rule:nonzero;fill:#fff;font-family:'Got No Heart';font-size:19.19050026px;font-variant:normal;font-weight:bold;writing-mode:lr-tb">
              <tspan id="tspan118" y="0" x="0">
                -
              </tspan>
              <tspan id="tspan120" y="23.0289" x="-0.00078125001 12.588187 26.462917 39.31992">
                
              </tspan>
              <tspan id="tspan122" y="46.058201" x="0 6.4480081 19.267262 33.852043 50.163967 65.324463 78.182098 83.939247">
                
              </tspan>
              <tspan id="tspan124" y="69.085899" x="-0.00078125001 16.656572 32.968498 47.131088 60.852261 75.360283">
                
              </tspan>
              <tspan id="tspan126" y="92.113998" x="0 14.392875 27.250509 41.413097 53.273056 69.584976">
                
              </tspan>
            </text>
          </g>
        </g>
      </g>
      <path id="path130" d="M6825.28 3867.58 7920.19 3827c0 0 758.77-1294.12 232.51-2104.46-215.47-331.76-1844.5-509.57-1124.93 888.48 179.12 348.04 372.43 544.53 372.43 544.53 0 0-518.25 154.5-574.92 712.03" style="fill-opacity:1;fill-rule:nonzero;fill:#dcca9f"/>
      <path id="path132" d="m7400.16 3156.67c0 0 297.43-38.9 439.35-4.07 141.93 34.83 165.07 38.94 165.07 38.94 0 0-253.12-91.9-442.26-108.39-189.17-16.46-233.39-8-233.39-8 0 0 25.6 30.72 34.24 40.68 14.71 17.03 36.99 40.84 36.99 40.84" style="fill-opacity:1;fill-rule:nonzero;fill:#cab885"/>
      <path id="path134" d="m5789.47 3590.94c35.65-35.66 25.78-103.33-22.06-151.17l-86.62-86.62c-47.84-47.84-115.52-57.73-151.17-22.07l-199.05 199.05c-35.65 35.66-25.77 103.33 22.06 151.18l86.63 86.61c47.83 47.84 115.52 57.73 151.16 22.06l199.05-199.04" style="fill-opacity:1;fill-rule:nonzero;fill:#dcca9f"/>
      <path id="path136" d="m5843.85 4184.96c40.71-40.69 30.03-117.36-23.86-171.24l-97.56-97.56c-53.88-53.87-130.54-64.58-171.24-23.87l-227.23 227.23c-40.69 40.69-30.01 117.36 23.87 171.24l97.55 97.57c53.88 53.88 130.55 64.57 171.25 23.86l227.22-227.23" style="fill-opacity:1;fill-rule:nonzero;fill:#dcca9f"/>
      <path id="path138" d="m5843.85 4854.37c40.71-40.7 30.03-117.37-23.86-171.25l-97.56-97.55c-53.88-53.88-130.54-64.57-171.24-23.87l-227.23 227.23c-40.69 40.69-30.01 117.37 23.87 171.25l97.55 97.55c53.88 53.88 130.55 64.57 171.25 23.87l227.22-227.23" style="fill-opacity:1;fill-rule:nonzero;fill:#dcca9f"/>
    </g>
  </g>
</svg>
