<?xml version="1.0" encoding="UTF-8" standalone="no"?>
<svg
   xmlns:dc="http://purl.org/dc/elements/1.1/"
   xmlns:cc="http://creativecommons.org/ns#"
   xmlns:rdf="http://www.w3.org/1999/02/22-rdf-syntax-ns#"
   xmlns:svg="http://www.w3.org/2000/svg"
   xmlns="http://www.w3.org/2000/svg"
   viewBox="0 0 793.70667 793.70667"
   height="793.70667"
   width="793.70667"
   xml:space="preserve"
   id="svg2"
   version="1.1"><metadata
     id="metadata8"><rdf:RDF><cc:Work
         rdf:about=""><dc:format>image/svg+xml</dc:format><dc:type
           rdf:resource="http://purl.org/dc/dcmitype/StillImage" /></cc:Work></rdf:RDF></metadata><defs
     id="defs6" /><g
     transform="matrix(1.3333333,0,0,-1.3333333,0,793.70667)"
     id="g10"><g
       transform="scale(0.1)"
       id="g12"><path
         id="path14"
         style="fill:#ffffff;fill-opacity:1;fill-rule:nonzero;stroke:none"
         d="M 5952.8,0 H 0 V 5952.8 H 5952.8 V 0" /><path
         id="path16"
         style="fill:#a5dcf0;fill-opacity:1;fill-rule:nonzero;stroke:none"
         d="M 2995.16,5050.64 C 1709.17,5050.64 666.664,4008.09 666.664,2722.1 666.664,1436.07 1709.17,393.52 2995.16,393.52 c 1286.05,0 2328.61,1042.55 2328.61,2328.58 0,1285.99 -1042.56,2328.54 -2328.61,2328.54" /><path
         id="path18"
         style="fill:#d8edee;fill-opacity:1;fill-rule:nonzero;stroke:none"
         d="m 4864.18,1333.01 c -2.64,159.87 -116.02,301.9 -279.22,334.48 -160.33,32.02 -316.82,-52.01 -382.76,-194.01 -38.47,34.25 -86.15,59.06 -140.29,69.86 -118.26,23.62 -234.04,-26.03 -300.62,-117.54 -19.22,7.74 -39.38,13.88 -60.39,18.09 -183.01,36.54 -360.98,-82.18 -397.46,-265.15 -36.57,-183.01 82.17,-360.939 265.17,-397.478 62.87,-12.563 125.2,-6.782 181.33,13.648 -0.27,-1.269 -0.58,-2.519 -0.82,-3.808 -18.36,-91.973 4.22,-182.602 55.1,-253.102 426.01,157.871 793.26,436.77 1059.96,795.01" /><path
         id="path20"
         style="fill:#d8edee;fill-opacity:1;fill-rule:nonzero;stroke:none"
         d="m 1117.81,1682.41 c -0.08,8.09 -0.61,16.17 -1.43,24.24 4.21,-7.25 8.87,-14.12 13.76,-20.93 -4.21,-1 -8.3,-2.12 -12.33,-3.31 z M 1427.91,1196 c 133.88,-70.93 299.94,-19.92 370.91,113.93 70.91,133.91 19.91,299.97 -113.94,370.93 -24.95,13.21 -50.96,22.21 -77.29,27.17 1.98,3.47 4.05,7.06 5.94,10.62 73.79,139.14 20.68,311.73 -118.42,385.44 -80.85,42.86 -172.9,42.83 -250.42,8.11 -19.92,57.68 -60.94,108.25 -119.11,139.08 -89.01,47.17 -193.65,35.12 -268.943,-22.18 -19.004,21.99 -42.324,40.99 -69.59,55.45 -27.012,14.29 -55.539,22.92 -84.192,26.39 74.7,-419.3 261.661,-799.75 528.655,-1109.19 43.37,7.69 84.46,26.73 118.43,55.91 21.44,-24.47 47.52,-45.54 77.97,-61.66" /><path
         id="path22"
         style="fill:#d8edee;fill-opacity:1;fill-rule:nonzero;stroke:none"
         d="M 2888.75,2687.51 2585.83,972.289 3524.62,1028.95 3167.4,2705.48 2888.75,2687.51" /><path
         id="path24"
         style="fill:#d8edee;fill-opacity:1;fill-rule:nonzero;stroke:none"
         d="m 3691.72,1136.71 c 27.11,74.57 -6.31,156.36 -75.08,191.73 18.67,20.96 33.79,45.73 43.94,73.7 43.03,118.45 -18.09,249.36 -136.54,292.38 -118.42,43.05 -249.34,-18.11 -292.34,-136.54 -4.81,-13.24 -8.22,-26.58 -10.55,-39.95 -9.92,5.29 -20.37,10 -31.25,13.99 -126.36,45.88 -266.01,-19.32 -311.92,-145.68 -39.14,-107.72 2.55,-225.02 93.97,-285.77 -27.79,-22.98 -50.05,-53.43 -63.26,-89.8 -28.86,-79.45 -6.71,-164.938 49.64,-220.758 -7.36,-12.481 -13.76,-25.782 -18.9,-39.922 -44.65,-122.93 18.79,-258.809 141.72,-303.438 122.91,-44.672 258.77,18.789 303.44,141.7 15.35,42.218 17.95,86.046 9.73,127.109 0.86,-0.301 1.68,-0.672 2.54,-0.981 117.91,-42.828 248.22,18.012 291.05,135.922 28.61,78.75 10.94,162.988 -39.08,223.038 18.73,16.65 33.75,38.03 42.89,63.27" /><path
         id="path26"
         style="fill:#d8edee;fill-opacity:1;fill-rule:nonzero;stroke:none"
         d="m 5021.66,2221.16 c -8.34,-11.12 -15.45,-22.77 -21.46,-34.78 -7.9,7.9 -16.39,15.36 -25.59,22.25 -106.33,79.86 -257.32,58.44 -337.21,-47.9 -68.11,-90.67 -62.52,-213.75 6.51,-297.59 -32.95,-13.74 -62.78,-36.15 -85.79,-66.76 -50.23,-66.86 -53.9,-154.18 -16.66,-223.25 -10.6,-9.71 -20.48,-20.44 -29.43,-32.33 -77.71,-103.48 -56.87,-250.4 46.62,-328.12 50.71,-38.1 111.82,-52.44 170.12,-45.06 279.73,311.72 476.54,699.28 555.92,1128.1 -92.13,36.22 -200.67,8.45 -263.03,-74.56" /><path
         id="path28"
         style="fill:#d8edee;fill-opacity:1;fill-rule:nonzero;stroke:none"
         d="m 2783.59,1402.25 c 11.51,17 20.81,36.14 27.15,57.12 30.41,100.14 -16.92,203.14 -105.73,230.07 -80.35,24.41 -167.11,-21.89 -205.41,-105.16 -74.72,2.35 -147.34,-51.95 -172.73,-135.55 -20.64,-68.04 -4.51,-137.38 36.37,-182.18 -36.39,-13.85 -67.31,-46.17 -80.43,-89.47 -21.19,-69.77 11.79,-141.57 73.66,-160.35 5.48,-1.66 10.99,-2.7 16.48,-3.44 -0.14,-0.47 -0.36,-0.92 -0.49,-1.41 -22.82,-75.099 12.7,-152.36 79.28,-172.56 66.61,-20.211 139.07,24.282 161.87,99.36 4.12,13.59 6.29,27.242 6.74,40.621 1.72,-0.559 3.36,-1.18 5.07,-1.699 106.51,-32.321 222.37,38.848 258.83,158.968 33.34,109.8 -11.34,222.5 -100.66,265.68" /><path
         id="path30"
         style="fill:#d8edee;fill-opacity:1;fill-rule:nonzero;stroke:none"
         d="m 2482.73,713.109 c 20.44,-3.3 41.46,-4.796 62.91,-4.238 186.52,5 333.69,160.238 328.68,346.759 -4.97,186.54 -160.22,333.69 -346.77,328.71 -64.08,-1.72 -123.59,-21.17 -173.79,-53.55 -0.03,1.31 0,2.58 -0.03,3.9 -4.79,178.91 -153.7,320.05 -332.6,315.25 -119.5,-3.18 -222.07,-70.69 -275.66,-168.47 -31.87,16.15 -68.1,24.87 -106.37,23.85 -113.17,-3.05 -204.26,-90.16 -215.25,-199.92 -37.6,13.81 -78.33,20.92 -120.8,19.78 -51.47,-1.36 -99.81,-14.67 -142.51,-37.11 267.08,-341.23 627.31,-606.007 1042.4,-756.191 4.22,-0.059 8.45,-0.227 12.75,-0.098 120.54,3.231 222.43,77.348 267.04,181.328" /><path
         id="path32"
         style="fill:#ffffff;fill-opacity:1;fill-rule:nonzero;stroke:none"
         d="m 4802.41,1253.82 c -22.92,18.63 -48.58,34.66 -76.8,47.36 -149.12,67.07 -320.43,20.17 -416.49,-103.44 -29.79,41.97 -70.74,76.82 -121.08,99.47 -109.97,49.48 -233.94,26.98 -319.3,-47.3 -16.98,11.84 -35.24,22.34 -54.83,31.15 -170.18,76.56 -370.18,0.67 -446.71,-169.49 -76.56,-170.199 -0.68,-370.199 169.52,-446.738 58.49,-26.312 120.55,-34.641 179.8,-27.281 -0.52,-1.18 -1.13,-2.332 -1.68,-3.52 -19.9,-44.281 -28.98,-90.64 -28.49,-136.191 443.42,137.64 830,404.281 1116.06,755.98" /><path
         id="path34"
         style="fill:#ffffff;fill-opacity:1;fill-rule:nonzero;stroke:none"
         d="m 1514.19,1016.57 c 1.18,0.6 2.31,1.17 3.48,1.78 157.46,85.07 216.13,281.68 131.06,439.16 -56.81,105.15 -163.38,166.19 -274.81,169.8 0.02,35.74 -8.59,72.04 -26.78,105.7 -53.79,99.61 -172.67,141.54 -275.56,101.76 -4.69,39.79 -16.7,79.36 -36.91,116.74 -59.412,109.97 -173.006,171.91 -289.861,170.77 143.937,-541.41 478.001,-1005.24 926.401,-1315.768 -6.7,26.988 -16.9,53.59 -30.73,79.179 -30.48,56.45 -74.72,100.719 -126.29,130.879" /><path
         id="path36"
         style="fill:#ffffff;fill-opacity:1;fill-rule:nonzero;stroke:none"
         d="m 2926.09,2362.92 -234.96,-1199.67 728.17,39.63 -277.07,1172.6 -216.14,-12.56" /><path
         id="path38"
         style="fill:#ffffff;fill-opacity:1;fill-rule:nonzero;stroke:none"
         d="m 3394.32,544.172 c 0.86,-0.301 1.68,-0.672 2.54,-0.981 117.93,-42.851 248.22,18.008 291.05,135.938 28.61,78.73 10.94,162.973 -39.08,223.043 18.73,16.629 33.73,38.008 42.89,63.25 27.11,74.568 -6.31,156.358 -75.08,191.738 18.67,20.95 33.79,45.72 43.93,73.71 43.04,118.43 -18.08,249.32 -136.53,292.36 -118.42,43.05 -249.34,-18.09 -292.34,-136.54 -4.83,-13.23 -8.25,-26.59 -10.55,-39.94 -9.92,5.29 -20.37,10 -31.25,13.96 -126.33,45.9 -266.01,-19.3 -311.92,-145.66 -39.14,-107.72 2.55,-225.019 93.96,-285.769 -27.78,-22.98 -50.02,-53.429 -63.25,-89.801 -28.86,-79.429 -6.69,-164.941 49.64,-220.738 -7.38,-12.5 -13.76,-25.801 -18.9,-39.941 -22.82,-62.821 -17.36,-129.031 9.8,-184.711 15.3,-0.27 30.57,-0.57 45.93,-0.57 133.8,0 264.92,11.449 392.55,33.109 12.42,39.262 14.2,79.57 6.61,117.543" /><path
         id="path40"
         style="fill:#ffffff;fill-opacity:1;fill-rule:nonzero;stroke:none"
         d="m 5198.95,2095.85 c -109.93,-27.94 -182.71,-127.32 -181.55,-235.9 -34.26,9.93 -71.56,11.2 -108.66,1.77 -81.06,-20.57 -138.68,-86.29 -152.98,-163.45 -14.31,-0.92 -28.77,-3.1 -43.18,-6.76 -125.46,-31.85 -201.31,-159.37 -169.44,-284.82 28.05,-110.45 130.34,-182.44 240.02,-176.27 209.88,251.32 367.74,547.52 457.11,872.14 -13.7,-1.05 -27.53,-3.21 -41.32,-6.71" /><path
         id="path42"
         style="fill:#ffffff;fill-opacity:1;fill-rule:nonzero;stroke:none"
         d="m 2834.96,1282.19 c 4.59,19.98 6.38,41.2 4.76,63.07 -7.67,104.36 -88.92,183.43 -181.47,176.59 -83.74,-6.16 -148.02,-80.59 -153.78,-172.04 -70.57,-24.72 -118.77,-101.52 -112.37,-188.65 5.24,-70.94 45.26,-129.79 99.54,-156.91 -28.96,-26 -46.2,-67.27 -42.86,-112.41 5.36,-72.731 61.99,-127.828 126.45,-123.059 5.7,0.41 11.23,1.418 16.64,2.688 0.02,-0.469 -0.02,-0.969 0.02,-1.477 5.76,-78.262 66.7,-137.562 136.11,-132.441 69.42,5.109 120.99,72.711 115.21,150.949 -1.03,14.16 -3.92,27.699 -8.29,40.34 1.77,0.09 3.52,0.109 5.33,0.25 111,8.16 193.48,116.269 184.28,241.46 -8.46,114.46 -90.72,203.52 -189.57,211.64" /><path
         id="path44"
         style="fill:#ffffff;fill-opacity:1;fill-rule:nonzero;stroke:none"
         d="m 2684.2,428.582 c 186.54,4.977 333.69,160.238 328.71,346.758 -5,186.539 -160.26,333.69 -346.78,328.71 -64.12,-1.72 -123.61,-21.17 -173.81,-53.57 -0.02,1.3 0,2.59 -0.02,3.9 -4.79,178.91 -153.71,320.06 -332.6,315.26 -119.51,-3.17 -222.09,-70.69 -275.64,-168.48 -31.9,16.17 -68.13,24.88 -106.4,23.87 -113.15,-3.05 -204.25,-90.16 -215.24,-199.93 -37.6,13.79 -78.34,20.94 -120.8,19.79 -18.85,-0.51 -37.25,-2.7 -55.15,-6.25 331.83,-317.21 757.31,-537.128 1230.75,-614.41 1.35,2.872 2.8,5.661 4.06,8.59 20.45,-3.281 41.46,-4.808 62.92,-4.238" /><path
         id="path46"
         style="fill:#ffffff;fill-opacity:1;fill-rule:nonzero;stroke:none"
         d="m 3757.23,694.809 c -64.09,-1.719 -123.62,-21.168 -173.79,-53.547 -0.04,1.308 0,2.59 -0.04,3.898 -4.79,178.91 -153.71,320.039 -332.61,315.262 -119.49,-3.192 -222.08,-70.711 -275.65,-168.5 -31.87,16.168 -68.1,24.879 -106.38,23.867 -113.16,-3.047 -204.25,-90.16 -215.24,-199.918 -37.59,13.801 -78.33,20.91 -120.81,19.777 -103.42,-2.746 -194.23,-53.527 -251.83,-130.328 225.09,-72.5 465.09,-111.8 714.28,-111.8 354.16,0 689.78,79.199 990.29,220.652 -61.27,52.258 -141.33,82.969 -228.22,80.637" /><path
         id="path48"
         style="fill:#ffffff;fill-opacity:1;fill-rule:nonzero;stroke:none"
         d="m 4210.7,3758.61 c 1.21,1.61 2.44,3.26 3.58,4.93 2.48,-2.98 5.11,-5.85 7.83,-8.59 -3.75,1.39 -7.56,2.6 -11.41,3.66 z m 264.01,108.08 c -9.03,-1.78 -17.6,-4.57 -25.65,-8.21 -0.4,5.06 -1.07,10.15 -2.07,15.24 -14.02,72.01 -83.81,118.99 -155.8,104.94 -39.63,-7.74 -71.66,-32.36 -90.14,-64.93 -26.98,27.46 -66.79,41.28 -107.4,33.36 -49.33,-9.63 -85.51,-48.55 -94.03,-95.17 -15.36,2.66 -31.46,2.64 -47.65,-0.51 -52.9,-10.34 -92.15,-51.01 -103.23,-100.44 h 764.33 c 0.11,7.91 -0.58,15.94 -2.15,24 -12.29,62.95 -73.26,104 -136.21,91.72" /><path
         id="path50"
         style="fill:#ffffff;fill-opacity:1;fill-rule:nonzero;stroke:none"
         d="m 1815,3277.73 c 0.97,1.25 1.91,2.54 2.81,3.85 1.9,-2.32 3.99,-4.58 6.09,-6.72 -2.91,1.09 -5.9,2.02 -8.9,2.87 z m 206.13,84.36 c -7.06,-1.37 -13.75,-3.56 -20.04,-6.4 -0.31,3.95 -0.84,7.92 -1.62,11.89 -10.95,56.23 -65.43,92.91 -121.63,81.94 -30.95,-6.05 -55.93,-25.27 -70.35,-50.69 -21.08,21.43 -52.16,32.21 -83.87,26.04 -38.51,-7.52 -66.76,-37.9 -73.38,-74.3 -12.02,2.07 -24.56,2.05 -37.24,-0.4 -41.27,-8.06 -71.93,-39.83 -80.55,-78.4 h 596.69 c 0.07,6.16 -0.44,12.43 -1.69,18.73 -9.58,49.13 -57.18,81.18 -106.32,71.59" /><path
         id="path52"
         style="fill:#f05a2a;fill-opacity:1;fill-rule:nonzero;stroke:none"
         d="m 3039.7,2863.94 c -171.03,-4.31 -317.19,-196.97 -313.71,-333.99 3.49,-136.97 338.8,-655.45 338.8,-655.45 94.64,237.39 308.54,537.09 305.15,671.75 -3.44,134.68 -159.22,322.04 -330.24,317.69" /><path
         id="path54"
         style="fill:#f8ec3a;fill-opacity:1;fill-rule:nonzero;stroke:none"
         d="m 3039.98,2854.05 c -139.79,-3.53 -259.22,-161.03 -256.37,-272.95 2.8,-111.98 276.84,-535.68 276.84,-535.68 77.36,193.99 252.21,438.91 249.41,549 -2.82,110.06 -130.07,263.17 -269.88,259.63" /><path
         id="path56"
         style="fill:#ffffff;fill-opacity:1;fill-rule:nonzero;stroke:none"
         d="m 3039.92,2855.2 c -107.72,-2.71 -199.73,-124.09 -197.54,-210.35 2.18,-86.26 213.36,-412.75 213.36,-412.75 59.58,149.47 194.28,338.22 192.14,423.04 -2.13,84.81 -100.22,202.76 -207.96,200.06" /><path
         id="path58"
         style="fill:#f05a2a;fill-opacity:1;fill-rule:nonzero;stroke:none"
         d="m 2910.11,2792.87 c -111.58,22.1 -234.51,-81.66 -252.22,-171.05 -17.69,-89.4 124.35,-474.65 124.35,-474.65 96.04,140.2 278.49,303.56 295.87,391.45 17.42,87.87 -56.36,232.15 -168,254.25" /><path
         id="path60"
         style="fill:#f8ec3a;fill-opacity:1;fill-rule:nonzero;stroke:none"
         d="m 2908.82,2786.41 c -91.22,18.06 -191.64,-66.73 -206.09,-139.78 -14.5,-73.06 101.65,-387.95 101.65,-387.95 78.45,114.64 227.57,248.1 241.76,319.93 14.24,71.85 -46.08,189.75 -137.32,207.8" /><path
         id="path62"
         style="fill:#ffffff;fill-opacity:1;fill-rule:nonzero;stroke:none"
         d="m 2908.98,2787.15 c -70.27,13.93 -147.66,-51.42 -158.85,-107.71 -11.14,-56.3 78.33,-298.93 78.33,-298.93 60.46,88.31 175.41,191.18 186.34,246.53 10.98,55.33 -35.51,146.2 -105.82,160.11" /><path
         id="path64"
         style="fill:#f05a2a;fill-opacity:1;fill-rule:nonzero;stroke:none"
         d="m 2961.21,2819.88 c -66.29,-28.77 -93.03,-127.41 -69.96,-180.48 23.08,-53.09 236.54,-203.04 236.54,-203.04 -0.54,107.96 35.75,259.22 13.07,311.43 -22.66,52.2 -113.34,100.89 -179.65,72.09" /><path
         id="path66"
         style="fill:#f8ec3a;fill-opacity:1;fill-rule:nonzero;stroke:none"
         d="m 2962.87,2816.03 c -54.14,-23.51 -76,-104.09 -57.14,-147.51 18.83,-43.4 193.26,-165.92 193.26,-165.92 -0.38,88.25 29.23,211.86 10.71,254.54 -18.54,42.65 -92.66,82.43 -146.83,58.89" /><path
         id="path68"
         style="fill:#ffffff;fill-opacity:1;fill-rule:nonzero;stroke:none"
         d="m 2962.68,2816.49 c -41.73,-18.12 -58.56,-80.27 -44.05,-113.7 14.53,-33.41 148.95,-127.82 148.95,-127.82 -0.31,68.02 22.54,163.24 8.21,196.12 -14.25,32.88 -71.36,63.54 -113.11,45.4" /><path
         id="path70"
         style="fill:#f7cf9c;fill-opacity:1;fill-rule:nonzero;stroke:none"
         d="M 3331.38,5026.38 2991.7,5655.91 2681.91,5029.6 c 102.47,13.78 207.01,21.04 313.25,21.04 114.2,0 226.42,-8.37 336.22,-24.26" /><path
         id="path72"
         style="fill:#f7cf9c;fill-opacity:1;fill-rule:nonzero;stroke:none"
         d="m 2580.97,4825.39 -1.52,-3.08 h 0.01 c 0,-0.04 -0.01,-0.06 -0.01,-0.1 -0.74,-59.78 0,-642.94 0,-642.94 h 862.17 v 642.94 h -0.06 l -110.18,204.17 c -109.8,15.89 -222.02,24.26 -336.22,24.26 -106.24,0 -210.78,-7.26 -313.25,-21.04 l -99.94,-202.09 c -0.62,-0.67 -0.57,-1.44 -1,-2.12" /><path
         id="path74"
         style="fill:#eabd8c;fill-opacity:1;fill-rule:nonzero;stroke:none"
         d="m 2991.7,5655.91 153.68,-610.22 c 62.7,-4 124.74,-10.44 186,-19.31 l -339.68,629.53" /><path
         id="path76"
         style="fill:#eabd8c;fill-opacity:1;fill-rule:nonzero;stroke:none"
         d="m 3201.66,4664.71 h 239.96 l -0.06,157.5 -110.18,204.17 c -61.26,8.87 -123.3,15.31 -186,19.31 l 56.28,-223.48 v -157.5" /><path
         id="path78"
         style="fill:#eabd8c;fill-opacity:1;fill-rule:nonzero;stroke:none"
         d="m 2991.7,5655.91 -309.93,-626.33 c 60.59,8.14 121.9,14.02 183.83,17.42 l 126.1,608.91" /><path
         id="path80"
         style="fill:#eabd8c;fill-opacity:1;fill-rule:nonzero;stroke:none"
         d="m 2579.14,4664.71 h 239.93 v 157.5 L 2865.6,5047 c -61.93,-3.4 -123.24,-9.28 -183.83,-17.42 l -102.6,-207.37 -0.03,-157.5" /><path
         id="path82"
         style="fill:#e24b77;fill-opacity:1;fill-rule:nonzero;stroke:none"
         d="m 3338.22,3335.93 -655.53,-0.08 c -57.01,0 -103.23,-37.28 -103.24,-83.24 v -411.23 c 0,-46 46.19,-83.22 103.24,-83.33 h 655.53 c 57.09,0 103.34,37.31 103.3,83.28 l 0.04,411.28 c 0,46.01 -46.21,83.27 -103.34,83.32" /><path
         id="path84"
         style="fill:#ffdc24;fill-opacity:1;fill-rule:nonzero;stroke:none"
         d="m 3437.56,4822.21 c 1.35,-6.09 2.3,-12.34 2.3,-18.79 0,-54.53 -54.41,-98.77 -121.4,-98.77 -67.08,0 -112.56,38.83 -112.56,93.37 0,6.42 -7.87,18.1 -6.48,24.19 -3.55,-82.85 -119.84,-109.22 -191.6,-109.22 -72.18,0 -181.59,25.67 -188.41,104.32 -3.24,-52.21 -55.81,-93.79 -120.72,-93.79 -59.91,0 -109.33,35.33 -119.24,81.75 l 0.01,-1562.69 862.16,-0.01 -0.1,1579.64 h -3.96" /><path
         id="path86"
         style="fill:#221f1f;fill-opacity:1;fill-rule:nonzero;stroke:none"
         d="m 3148.69,5365.01 -156.99,290.9 -143.97,-290.95 z" /><path
         id="path88"
         style="fill:#d0d2d3;fill-opacity:1;fill-rule:nonzero;stroke:none"
         d="m 2579.45,3061.7 862.07,0.12 0.1,197.62 -862.16,0.01 -0.01,-197.75" /><path
         id="path90"
         style="fill:#e8bf15;fill-opacity:1;fill-rule:nonzero;stroke:none"
         d="m 2698.69,4740.48 c -59.91,0 -109.33,35.33 -119.24,81.73 l 0.01,-1562.69 238.37,-0.08 0.05,1562.36 c -10.18,-46.19 -59.51,-81.32 -119.19,-81.32" /><path
         id="path92"
         style="fill:#e8bf15;fill-opacity:1;fill-rule:nonzero;stroke:none"
         d="m 3321.64,4740.48 c -60.26,0 -109.98,35.29 -119.98,81.73 V 3259.52 l 239.86,-0.08 0.04,1562.36 c -10.22,-46.19 -59.93,-81.32 -119.92,-81.32" /><path
         id="path94"
         style="fill:#f0f1f1;fill-opacity:1;fill-rule:nonzero;stroke:none"
         d="m 2817.83,3061.7 h 383.83 v 197.74 H 2817.83 V 3061.7" /><path
         id="path96"
         style="fill:#f45d81;fill-opacity:1;fill-rule:nonzero;stroke:none"
         d="m 2817.83,2758.05 h 383.83 v 303.71 h -383.83 v -303.71" /></g></g></svg>