<svg width="793" height="793" xmlns="http://www.w3.org/2000/svg">
 <metadata id="metadata8">image/svg+xml</metadata>
 <defs>
  <clipPath clipPathUnits="userSpaceOnUse" id="clipPath22">
   <path d="m11163.745903,4919.99c0,-2369.87 -1921.22,-4291.049 -4291.1,-4291.049c-2369.88,0 -4291.05,1921.179 -4291.05,4291.049c0,2369.89 1921.17,4291.06 4291.05,4291.06c2369.88,0 4291.1,-1921.17 4291.1,-4291.06" id="path20"/>
  </clipPath>
  <clipPath clipPathUnits="userSpaceOnUse" id="clipPath96">
   <path d="m5822.645903,2470l2060,0l0,3640l-2060,0l0,-3640z" id="path94"/>
  </clipPath>
 </defs>
 <g>
  <title>background</title>
  <rect fill="none" id="canvas_background" height="795" width="795" y="-1" x="-1"/>
 </g>
 <g>
  <title>Layer 1</title>
  <g id="g10" transform="matrix(0.8593960388229192,0,0,-0.8593960388229192,-0.14833519525717165,842.3953984913677) ">
   <g id="g12" transform="translate(-230.25,57.75) scale(0.10000000149011612) ">
    <path fill-rule="nonzero" fill="#a5dcf0" d="m11163.645903,4920c0,-2369.88 -1921.12,-4291.039 -4291,-4291.039c-2369.88,0 -4291.05,1921.159 -4291.05,4291.039c0,2369.88 1921.17,4291.05 4291.05,4291.05c2369.88,0 4291,-1921.17 4291,-4291.05" id="path14"/>
    <g id="g16">
     <g id="g18" clip-path="url(#clipPath22)">
      <path fill-rule="evenodd" fill="#fff" d="m11035.445903,7274.95c5.7,-11.36 11.4,-22.75 17,-34.16c10.8,-22.15 21.6,-44.4 32,-66.74c5.9,-12.32 11.7,-24.64 17.4,-37.05c9.9,-21.42 19.6,-42.84 29.2,-64.45c6.4,-14.34 12.7,-28.82 19,-43.3c8.5,-19.77 16.9,-39.62 25.2,-59.57c6.8,-16.46 13.6,-33.01 20.3,-49.65c7.3,-18.07 14.4,-36.22 21.5,-54.42c7.4,-19.21 14.7,-38.43 21.9,-57.83c5.8,-15.45 11.5,-31.03 17.1,-46.57c7.7,-21.46 15.4,-42.93 22.7,-64.49c4.7,-13.7 9.4,-27.39 14,-41.14c7.8,-23.72 15.6,-47.4 23.1,-71.29c3.7,-11.73 7.4,-23.54 11.1,-35.32c8,-26.1 15.7,-52.21 23.2,-78.5c2.9,-9.66 5.6,-19.27 8.3,-28.97c8.1,-28.49 15.8,-57.17 23.3,-85.95l6.5,-25.01c7.7,-30.25 15.1,-60.68 22.2,-91.11l4.6,-19.86c7.4,-32.45 14.6,-65.09 21.3,-97.82l-2910.42,0l0,3.73c0,291.16 229.24,527.24 511.98,527.24c81.69,0 158.92,-19.71 227.45,-54.78c150.97,224.04 410.32,371.92 704.93,371.92c103.8,0 203.26,-18.39 295.06,-51.94c190.3,200.97 462.8,334.92 769.5,358.09l0.6,-1.06" id="path24"/>
      <path fill-rule="evenodd" fill="#ffdc24" d="m7882.925903,578.352c-339.65,-77.911 -693.29,-119.204 -1056.52,-119.204c-1291.61,0 -2461.68,520.594 -3312.27,1363.222l1230.66,1230.66c182.39,182.45 481,182.45 663.45,0l2474.68,-2474.678" id="path26"/>
      <path fill-rule="evenodd" fill="#e8bf15" d="m6139.345903,2330.58l549.82,-549.73l-1287.37,-1075.881l671.07,1224.221l66.48,401.39" id="path28"/>
      <path fill-rule="evenodd" fill="#ffdc24" d="m11354.545903,3876.63c-560.8,-1972.52 -2376.11,-3417.482 -4528.14,-3417.482c-383.75,0 -756.64,46.25 -1113.81,132.954c6.25,111.289 51.58,220.777 136.07,305.269l3910.86,3910.899c182.49,182.35 481.02,182.35 663.52,0l931.5,-931.64" id="path30"/>
      <path fill-rule="evenodd" fill="#e8bf15" d="m11354.545903,3876.63c-328.7,-1156.03 -1088.4,-2130.56 -2094.06,-2739.59l847.66,2394.61l418.1,-2.58l-368.7,1411.26c97.3,-13.74 191,-57.78 265.5,-132.06l931.5,-931.64" id="path32"/>
      <path fill-rule="evenodd" fill="#fff" d="m9122.025903,4170.74l637.5,637.53c182.49,182.35 481.02,182.35 663.52,0l637.5,-637.53l-1938.52,0" id="path34"/>
      <path fill-rule="evenodd" fill="#fff" d="m2938.255903,4757.06c-275.81,0 -503.63,-205.66 -538.74,-471.95l2838.24,0c-28.46,273.45 -259.63,486.71 -540.45,486.71c-18.85,0 -37.46,-1.02 -55.76,-2.94c-148.43,215.58 -396.79,356.84 -678.12,356.84c-321.17,0 -599.42,-184.19 -734.98,-452.69c-83.98,53.23 -183.5,84.03 -290.19,84.03" id="path36"/>
      <path fill-rule="evenodd" fill="#fff" d="m3397.685903,7825.61c-131.88,0 -240.81,-98.34 -257.6,-225.66l1357.1,0c-13.61,130.75 -124.14,232.72 -258.42,232.72c-9.01,0 -17.91,-0.49 -26.66,-1.41c-70.97,103.08 -189.72,170.62 -324.24,170.62c-153.57,0 -286.61,-88.07 -351.43,-216.45c-40.15,25.45 -87.74,40.18 -138.75,40.18" id="path38"/>
      <path fill-rule="evenodd" fill="#fff" d="m9379.635903,8227.55c-131.87,0 -240.81,-98.34 -257.6,-225.67l1357.11,0c-13.6,130.76 -124.2,232.72 -258.4,232.72c-9,0 -17.9,-0.48 -26.7,-1.4c-71,103.08 -189.71,170.62 -324.23,170.62c-153.57,0 -286.6,-88.07 -351.43,-216.45c-40.15,25.45 -87.73,40.18 -138.75,40.18" id="path40"/>
     </g>
    </g>
    <path fill-rule="nonzero" fill="#dcca9f" d="m6432.645903,20l1730,0l0,1710l-1730,0l0,-1710z" id="path42"/>
    <path fill-rule="nonzero" fill="#ae9269" d="m8162.645903,1730l-1730,0l0,-17.4c0,0 403.34,-376.9 990.96,-403.95c274.58,-12.63 529.04,14.6 739.04,58.23l0,363.12" id="path44"/>
    <path fill-rule="nonzero" fill="#cab885" d="m7700.355903,3493.66c-88.38,250.36 -1004.32,1187.43 -1076.4,1259.51l-682.49,942.36c-108.95,108.95 -168.71,77.3 -225.09,20.93l-102.08,-102.06c-56.36,-56.39 -56.36,-56.39 20.94,-225.1c0,0 367.49,-691.54 319.79,-723.21l-232.11,320.49c-92.46,92.46 -143.16,65.6 -191.01,17.77l-86.62,-86.61c-47.84,-47.86 -74.67,-98.57 17.78,-191.01l277.67,-383.4c-5.03,-15.22 -9.81,-30.78 -14.36,-46.69l-3.46,4.79c-92.46,92.45 -143.16,65.59 -191.01,17.76l-86.62,-86.6c-47.84,-47.86 -74.67,-98.58 17.78,-191.02l167.86,-231.78c-39.86,8.41 -69.98,-12.84 -99.02,-41.88l-86.62,-86.6c-47.84,-47.85 -74.67,-98.58 17.78,-191.02l219,-302.38c35.53,-325.79 102.43,-648.24 184.24,-904.53c272.34,-853.13 1814.48,-790.14 1814.48,-790.14c0,0 24.09,516.72 123.5,791.92c99.43,275.17 21.15,854.17 -103.93,1208.5" id="path46"/>
    <path fill-rule="nonzero" fill="#fff" d="m5957.585903,5929.34c0,-11.01 -9,-20 -20,-20l-231.03,0c-11,0 -20,8.99 -20,20l0,163.02c0,11 9,20 20,20l231.03,0c11,0 20,-9 20,-20l0,-163.02" id="path48"/>
    <path fill-rule="nonzero" fill="#d2d3d2" d="m5957.585903,5929.34l-15,0c-0.01,-1.37 -0.53,-2.55 -1.48,-3.52c-0.98,-0.96 -2.16,-1.48 -3.52,-1.48l-231.03,0c-1.37,0 -2.55,0.52 -3.52,1.48c-0.96,0.97 -1.48,2.15 -1.48,3.52l0,163.02c0,1.37 0.52,2.55 1.48,3.52c0.97,0.96 2.15,1.48 3.52,1.48l231.03,0c1.36,0 2.54,-0.52 3.52,-1.48c0.95,-0.97 1.47,-2.15 1.48,-3.52l0,-163.02l30,0l0,163.02c-0.06,19.35 -15.65,34.95 -35,35l-231.03,0c-19.35,-0.05 -34.95,-15.65 -35,-35l0,-163.02c0.05,-19.35 15.65,-34.95 35,-35l231.03,0c19.35,0.05 34.94,15.65 35,35l-15,0" id="path50"/>
    <path fill-rule="nonzero" fill="#fff" d="m5957.585903,5340c0,-11 -9,-20 -20,-20l-230.17,0c-11.01,0 -20,9 -20,20l0,319.55c0,11 8.99,20 20,20l230.17,0c11,0 20,-9 20,-20l0,-319.55" id="path52"/>
    <path fill-rule="nonzero" fill="#d2d3d2" d="m5957.585903,5340l-15,0c-0.01,-1.36 -0.53,-2.54 -1.48,-3.51c-0.98,-0.96 -2.16,-1.48 -3.52,-1.48l-230.17,0c-1.37,0 -2.55,0.52 -3.52,1.48c-0.96,0.97 -1.48,2.15 -1.48,3.51l0,319.55c0,1.36 0.52,2.54 1.48,3.51c0.97,0.96 2.15,1.48 3.52,1.49l230.17,0c1.36,-0.01 2.54,-0.53 3.52,-1.49c0.95,-0.97 1.47,-2.15 1.48,-3.51l0,-319.55l30,0l0,319.55c-0.06,19.35 -15.65,34.94 -35,35l-230.17,0c-19.35,-0.06 -34.95,-15.65 -35,-35l0,-319.55c0.05,-19.34 15.65,-34.94 35,-35l230.17,0c19.35,0.06 34.94,15.66 35,35l-15,0" id="path54"/>
    <path fill-rule="nonzero" fill="#fff" d="m8014.975903,5350c0,-16.49 -13.49,-29.99 -30,-29.99l-210.1,0c-16.51,0 -30,13.5 -30,29.99l0,299.46c0,16.5 13.49,30 30,30l210.1,0c16.51,0 30,-13.5 30,-30l0,-299.46" id="path56"/>
    <path fill-rule="nonzero" fill="#d2d3d2" d="m8014.975903,5350l-15,0c0,-4.11 -1.65,-7.79 -4.42,-10.58c-2.78,-2.76 -6.46,-4.41 -10.58,-4.41l-210.1,0c-4.12,0 -7.8,1.65 -10.59,4.41c-2.76,2.79 -4.41,6.47 -4.41,10.58l0,299.46c0,4.12 1.65,7.8 4.41,10.58c2.79,2.77 6.47,4.42 10.59,4.42l210.1,0c4.12,0 7.8,-1.65 10.58,-4.42c2.77,-2.78 4.42,-6.46 4.42,-10.58l0,-299.46l30,0l0,299.46c-0.05,24.85 -20.14,44.95 -45,45l-210.1,0c-24.86,-0.05 -44.95,-20.15 -45.01,-45l0.01,-299.46c0.05,-24.84 20.14,-44.94 45,-44.99l210.1,0c24.86,0.05 44.95,20.15 45.01,44.99l-15.01,0" id="path58"/>
    <path fill-rule="nonzero" fill="#fff" d="m5958.495903,4896.27c0,-11 -9,-20 -20,-20l-230.16,0c-11,0 -20,9 -20,20l0,319.53c0,11 9,20 20,20l230.16,0c11,0 20,-9 20,-20l0,-319.53" id="path60"/>
    <path fill-rule="nonzero" fill="#d2d3d2" d="m5958.495903,4896.27l-15,0c0,-1.36 -0.53,-2.54 -1.48,-3.52c-0.98,-0.95 -2.16,-1.48 -3.52,-1.48l-230.16,0c-1.36,0 -2.54,0.53 -3.51,1.48c-0.96,0.98 -1.48,2.16 -1.49,3.52l0,319.53c0.01,1.37 0.53,2.55 1.48,3.52c0.98,0.95 2.16,1.48 3.52,1.48l230.16,0c1.36,0 2.54,-0.53 3.52,-1.48c0.95,-0.97 1.48,-2.15 1.48,-3.52l0,-319.53l30,0l0,319.53c-0.06,19.35 -15.65,34.94 -35,35l-230.16,0c-19.35,-0.06 -34.94,-15.65 -35,-35l0,-319.53c0.06,-19.35 15.65,-34.94 35,-35l230.16,0c19.35,0.06 34.94,15.65 35,35l-15,0" id="path62"/>
    <path fill-rule="nonzero" fill="#fff" d="m7980.535903,2206.86c0,-175.85 -142.57,-318.39 -318.4,-318.39l-1622.24,0c-175.85,0 -318.41,142.54 -318.41,318.39l0,4120.11c0,175.86 142.56,318.41 318.41,318.41l1622.24,0c175.83,0 318.4,-142.55 318.4,-318.41l0,-4120.11" id="path64"/>
    <path fill-rule="nonzero" fill="#d2d3d2" d="m7980.535903,2206.86l-15,0c-0.01,-83.83 -33.94,-159.59 -88.87,-214.54c-54.95,-54.92 -130.71,-88.85 -214.53,-88.85l-1622.23,0c-83.84,0 -159.6,33.93 -214.55,88.85c-54.93,54.95 -88.86,130.71 -88.87,214.54l0,4120.11c0.01,83.84 33.94,159.59 88.87,214.54c54.96,54.93 130.71,88.86 214.55,88.87l1622.23,0c83.82,-0.01 159.58,-33.94 214.53,-88.87c54.93,-54.95 88.86,-130.7 88.87,-214.54l0,-4120.11l30,0l0,4120.11c-0.01,184.15 -149.28,333.4 -333.4,333.41l-1622.23,0c-184.14,-0.01 -333.41,-149.26 -333.42,-333.41l0,-4120.11c0.01,-184.15 149.28,-333.38 333.42,-333.39l1622.23,0c184.12,0.01 333.39,149.24 333.4,333.39l-15,0" id="path66"/>
    <path fill-rule="nonzero" fill="#1e1c1b" d="m7902.645903,2460c0,-16.57 -13.43,-30 -30,-30l-2050,0c-16.57,0 -30,13.43 -30,30l0,3660c0,16.57 13.43,30 30,30l2050,0c16.57,0 30,-13.43 30,-30l0,-3660" id="path68"/>
    <path fill-rule="nonzero" fill="#dedddb" d="m7902.645903,2460l-10,0c-0.02,-11.05 -8.95,-19.98 -20,-20l-2050,0c-11.04,0.02 -19.98,8.96 -20,20l0,3660c0.02,11.04 8.96,19.98 20,20l2050,0c11.05,-0.02 19.98,-8.96 20,-20l0,-3660l20,0l0,3660c-0.01,22.09 -17.9,39.99 -40,40l-2050,0c-22.1,-0.01 -39.99,-17.9 -40,-40l0,-3660c0.01,-22.1 17.91,-39.99 40,-40l2050,0c22.1,0 40,17.9 40,40l-10,0" id="path70"/>
    <path fill-rule="nonzero" fill="#f4f4f5" d="m6425.295903,6389.14c0,22.4 18.17,40.59 40.58,40.59c22.42,0 40.59,-18.19 40.59,-40.59c0,-22.42 -18.17,-40.59 -40.59,-40.59c-22.41,0 -40.58,18.17 -40.58,40.59" id="path72"/>
    <path fill-rule="nonzero" fill="#dedddb" d="m6425.295903,6389.14l7.5,0c0.03,18.26 14.82,33.05 33.08,33.09c18.27,-0.04 33.05,-14.83 33.09,-33.09c-0.04,-18.27 -14.81,-33.05 -33.09,-33.09c-18.26,0.04 -33.05,14.82 -33.08,33.09l-15,0c0.01,-26.56 21.52,-48.08 48.08,-48.09c26.56,0.01 48.08,21.53 48.09,48.09c-0.01,26.55 -21.52,48.08 -48.09,48.09c-26.56,-0.01 -48.07,-21.54 -48.08,-48.09l7.5,0" id="path74"/>
    <path fill-rule="nonzero" fill="#f4f4f5" d="m6818.975903,6551.02c0,13.69 11.11,24.8 24.81,24.8c13.69,0 24.81,-11.11 24.81,-24.8c0,-13.7 -11.12,-24.81 -24.81,-24.81c-13.7,0 -24.81,11.11 -24.81,24.81" id="path76"/>
    <path fill-rule="nonzero" fill="#dedddb" d="m6818.975903,6551.02l7.5,0c0.02,9.54 7.75,17.28 17.31,17.3c9.55,-0.02 17.29,-7.76 17.31,-17.3c-0.02,-9.55 -7.76,-17.29 -17.31,-17.31c-9.55,0.02 -17.29,7.76 -17.31,17.31l-15,0c0,-17.85 14.47,-32.3 32.31,-32.31c17.84,0.01 32.3,14.46 32.31,32.31c-0.01,17.84 -14.47,32.29 -32.31,32.3c-17.84,-0.01 -32.31,-14.46 -32.31,-32.3l7.5,0" id="path78"/>
    <path fill-rule="nonzero" fill="#cdccca" d="m6658.945903,2158.16c0,102.08 82.76,184.84 184.84,184.84c102.06,0 184.84,-82.76 184.84,-184.84c0,-102.08 -82.78,-184.83 -184.84,-184.83c-102.08,0 -184.84,82.75 -184.84,184.83" id="path80"/>
    <path fill-rule="nonzero" fill="#fff" d="m6681.995903,2158.16c0,89.35 72.43,161.78 161.79,161.78c89.36,0 161.77,-72.43 161.77,-161.78c0,-89.33 -72.41,-161.78 -161.77,-161.78c-89.36,0 -161.79,72.45 -161.79,161.78" id="path82"/>
    <path fill-rule="nonzero" fill="#e8e7e6" d="m7012.645903,6401.86c0,-6.55 -5.31,-11.86 -11.86,-11.86l-336.28,0c-6.55,0 -11.86,5.31 -11.86,11.86l0,6.28c0,6.55 5.31,11.86 11.86,11.86l336.28,0c6.55,0 11.86,-5.31 11.86,-11.86l0,-6.28" id="path84"/>
    <path fill-rule="nonzero" fill="#dedddb" d="m7012.645903,6401.86l-10,0c0,-1.02 -0.85,-1.86 -1.86,-1.86l-336.28,0c-1.02,0 -1.86,0.84 -1.86,1.86l0,6.28c0,1.02 0.84,1.86 1.86,1.86l336.28,0c1.01,0 1.86,-0.84 1.86,-1.86l0,-6.28l20,0l0,6.28c-0.01,12.08 -9.78,21.85 -21.86,21.86l-336.28,0c-12.09,-0.01 -21.85,-9.79 -21.86,-21.86l0,-6.28c0.01,-12.07 9.77,-21.85 21.86,-21.86l336.28,0c12.08,0.01 21.85,9.78 21.86,21.86l-10,0" id="path86"/>
    <path fill-rule="nonzero" fill="#a5dcf0" d="m5822.645903,2470l2060,0l0,3640l-2060,0l0,-3640z" id="path88"/>
    <g id="g90">
     <g id="g92" clip-path="url(#clipPath96)">
      <path fill-rule="evenodd" fill="#fff" d="m8245.825903,5024.65c2.02,-4.01 4.02,-8.02 6,-12.03c3.82,-7.82 7.61,-15.66 11.3,-23.53c2.08,-4.33 4.12,-8.68 6.12,-13.05c3.47,-7.55 6.91,-15.1 10.29,-22.71c2.25,-5.06 4.47,-10.16 6.69,-15.26c3,-6.97 5.96,-13.96 8.88,-20.99c2.41,-5.8 4.79,-11.63 7.14,-17.5c2.58,-6.37 5.11,-12.76 7.58,-19.18c2.62,-6.77 5.2,-13.53 7.74,-20.37c2.03,-5.45 4.04,-10.94 6.02,-16.41c2.71,-7.57 5.41,-15.13 8,-22.73c1.67,-4.83 3.3,-9.65 4.92,-14.49c2.77,-8.36 5.51,-16.7 8.15,-25.13c1.31,-4.13 2.61,-8.29 3.9,-12.44c2.82,-9.2 5.54,-18.4 8.2,-27.67c0.99,-3.4 1.95,-6.79 2.91,-10.2c2.83,-10.04 5.58,-20.15 8.19,-30.3l2.31,-8.8c2.72,-10.66 5.31,-21.38 7.82,-32.1l1.6,-7.01c2.63,-11.43 5.16,-22.94 7.52,-34.47l-1025.57,0l0,1.32c0,102.6 80.78,185.79 180.42,185.79c28.78,0 55.99,-6.95 80.14,-19.31c53.2,78.95 144.58,131.06 248.4,131.06c36.57,0 71.61,-6.48 103.98,-18.3c67.06,70.82 163.06,118.02 271.16,126.18l0.19,-0.37" id="path98"/>
      <path fill-rule="evenodd" fill="#fff" d="m5409.085903,5676.26c-1.42,-2.83 -2.84,-5.66 -4.24,-8.5c-2.69,-5.52 -5.37,-11.06 -7.98,-16.62c-1.47,-3.06 -2.91,-6.13 -4.32,-9.22c-2.45,-5.33 -4.88,-10.67 -7.27,-16.04c-1.59,-3.58 -3.16,-7.17 -4.73,-10.78c-2.12,-4.92 -4.21,-9.86 -6.27,-14.83c-1.71,-4.09 -3.38,-8.21 -5.04,-12.36c-1.82,-4.5 -3.61,-9.02 -5.36,-13.55c-1.85,-4.78 -3.68,-9.56 -5.47,-14.39c-1.43,-3.85 -2.85,-7.72 -4.25,-11.59c-1.92,-5.35 -3.82,-10.69 -5.65,-16.06c-1.18,-3.41 -2.33,-6.82 -3.48,-10.24c-1.96,-5.9 -3.88,-11.79 -5.75,-17.75c-0.93,-2.91 -1.85,-5.85 -2.76,-8.79c-1.99,-6.5 -3.91,-12.99 -5.79,-19.54c-0.7,-2.4 -1.38,-4.79 -2.06,-7.21c-2,-7.09 -3.94,-14.23 -5.79,-21.4l-1.63,-6.22c-1.92,-7.53 -3.75,-15.1 -5.52,-22.68l-1.13,-4.95c-1.86,-8.07 -3.64,-16.2 -5.31,-24.35l724.48,0l0,0.94c0,72.47 -57.06,131.24 -127.45,131.24c-20.33,0 -39.55,-4.91 -56.61,-13.64c-37.58,55.77 -102.14,92.58 -175.48,92.58c-25.83,0 -50.58,-4.57 -73.45,-12.92c-47.37,50.03 -115.19,83.37 -191.55,89.13l-0.14,-0.26" id="path100"/>
      <path fill-rule="evenodd" fill="#ffdc24" d="m7092.645903,2360.18c-187.4,-43 -382.52,-65.77 -582.94,-65.77c-712.63,0 -1358.21,287.22 -1827.53,752.15l679.01,679.02c100.64,100.65 265.4,100.65 366.06,0l1365.4,-1365.4" id="path102"/>
      <path fill-rule="evenodd" fill="#e8bf15" d="m6236.535903,3220.4l303.36,-303.31l-710.31,-593.61l370.27,675.45l36.68,221.47" id="path104"/>
      <path fill-rule="evenodd" fill="#ffdc24" d="m8290.375903,3782.02c-238.13,-837.5 -1008.85,-1450.99 -1922.56,-1450.99c-162.93,0 -321.26,19.62 -472.9,56.44c2.66,47.25 21.89,93.73 57.77,129.61l1660.48,1660.5c77.48,77.42 204.24,77.42 281.71,0l395.5,-395.56" id="path106"/>
      <path fill-rule="evenodd" fill="#e8bf15" d="m8290.375903,3782.02c-139.56,-490.84 -462.1,-904.59 -889.1,-1163.17l359.9,1016.7l177.52,-1.11l-156.56,599.2c41.34,-5.83 81.14,-24.53 112.74,-56.06l395.5,-395.56" id="path108"/>
      <path fill-rule="evenodd" fill="#fff" d="m7342.495903,3906.88l270.67,270.7c77.48,77.42 204.24,77.42 281.71,0l270.66,-270.7l-823.04,0" id="path110"/>
      <path fill-rule="evenodd" fill="#fff" d="m5392.535903,3552.52c-97.18,0 -177.47,-72.47 -189.84,-166.31l1000.15,0c-10.03,96.37 -91.49,171.5 -190.45,171.5c-6.64,0 -13.2,-0.35 -19.65,-1.03c-52.3,75.97 -139.82,125.75 -238.95,125.75c-113.18,0 -211.23,-64.91 -259,-159.52c-29.59,18.75 -64.66,29.61 -102.26,29.61" id="path112"/>
      <path fill-rule="nonzero" fill="#dcf3ee" d="m7882.645903,5384.75l-226.25,0c4.77,36.22 35.77,64.2 73.29,64.2c14.51,0 28.05,-4.19 39.47,-11.43c18.44,36.52 56.29,61.58 99.98,61.58c4.57,0 9.08,-0.28 13.51,-0.81l0,-113.54" id="path114"/>
      <g id="g116" transform="translate(0,1.1368683772161603e-12) scale(10) ">
       <text x="9.264591" y="0" fill-rule="nonzero" fill="#fff" font-family="'Got No Heart'" font-size="19.1905px" font-weight="bold" transform="matrix(1,0,0,-1,605.427,502.298) " id="text128">
        <tspan x="0" y="0" id="tspan118">-</tspan>
        <tspan x="-0.00078125001 12.588187 26.462917 39.31992" y="23.0289" id="tspan120"/>
        <tspan x="0 6.4480081 19.267262 33.852043 50.163967 65.324463 78.182098 83.939247" y="46.058201" id="tspan122"/>
        <tspan x="-0.00078125001 16.656572 32.968498 47.131088 60.852261 75.360283" y="69.085899" id="tspan124"/>
        <tspan x="0 14.392875 27.250509 41.413097 53.273056 69.584976" y="92.113998" id="tspan126"/>
       </text>
      </g>
     </g>
    </g>
    <path fill-rule="nonzero" fill="#dcca9f" d="m6917.925903,3867.58l1094.91,-40.58c0,0 758.77,-1294.12 232.51,-2104.46c-215.47,-331.76 -1844.5,-509.57 -1124.93,888.48c179.12,348.04 372.43,544.53 372.43,544.53c0,0 -518.25,154.5 -574.92,712.03" id="path130"/>
    <path fill-rule="nonzero" fill="#cab885" d="m7492.805903,3156.67c0,0 297.43,-38.9 439.35,-4.07c141.93,34.83 165.07,38.94 165.07,38.94c0,0 -253.12,-91.9 -442.26,-108.39c-189.17,-16.46 -233.39,-8 -233.39,-8c0,0 25.6,30.72 34.24,40.68c14.71,17.03 36.99,40.84 36.99,40.84" id="path132"/>
    <path fill-rule="nonzero" fill="#dcca9f" d="m5882.115903,3590.94c35.65,-35.66 25.78,-103.33 -22.06,-151.17l-86.62,-86.62c-47.84,-47.84 -115.52,-57.73 -151.17,-22.07l-199.05,199.05c-35.65,35.66 -25.77,103.33 22.06,151.18l86.63,86.61c47.83,47.84 115.52,57.73 151.16,22.06l199.05,-199.04" id="path134"/>
    <path fill-rule="nonzero" fill="#dcca9f" d="m5936.495903,4184.96c40.71,-40.69 30.03,-117.36 -23.86,-171.24l-97.56,-97.56c-53.88,-53.87 -130.54,-64.58 -171.24,-23.87l-227.23,227.23c-40.69,40.69 -30.01,117.36 23.87,171.24l97.55,97.57c53.88,53.88 130.55,64.57 171.25,23.86l227.22,-227.23" id="path136"/>
    <path fill-rule="nonzero" fill="#dcca9f" d="m5936.495903,4854.37c40.71,-40.7 30.03,-117.37 -23.86,-171.25l-97.56,-97.55c-53.88,-53.88 -130.54,-64.57 -171.24,-23.87l-227.23,227.23c-40.69,40.69 -30.01,117.37 23.87,171.25l97.55,97.55c53.88,53.88 130.55,64.57 171.25,23.87l227.22,-227.23" id="path138"/>
   </g>
  </g>
 </g>
</svg>