<?xml version="1.0" encoding="utf-8"?>
<!-- Generator: Adobe Illustrator 18.0.0, SVG Export Plug-In . SVG Version: 6.00 Build 0)  -->
<!DOCTYPE svg PUBLIC "-//W3C//DTD SVG 1.1//EN" "http://www.w3.org/Graphics/SVG/1.1/DTD/svg11.dtd">
<svg version="1.1" id="Layer_1" xmlns="http://www.w3.org/2000/svg" xmlns:xlink="http://www.w3.org/1999/xlink" x="0px" y="0px"
	 viewBox="0 0 1400 980" enable-background="new 0 0 1400 980" xml:space="preserve">
<rect fill="#FFFFFF" width="1400" height="980"/>
<g>
	<g>
		<g>
			<path fill="#FFFFFF" d="M222.4,328.2c0,0,19.5,36.8,35.9,36.8s32.7-36.8,32.7-36.8H222.4z"/>
		</g>
		<g>
			<path fill="#C2B59B" d="M349.4,383.5c-2.6-41.8-43.6-73.4-43.6-73.4c-4.7,26.7-47.5,48.1-47.5,48.1s-42.9-21.4-47.5-48.1
				c0,0-41,31.6-43.6,73.4c-2.6,41.8,0,75.7,0,75.7h91.2h91.2C349.4,459.2,352,425.3,349.4,383.5z"/>
		</g>
		<g>
			<path fill="#726658" d="M219.5,331.1c0,0,13.7,33.6,38.7,38.4v-11.3c0,0-21.5-9.1-27.6-30L219.5,331.1z"/>
		</g>
		<g>
			<path fill="#595045" d="M297,331.1c0,0-13.7,33.6-38.7,38.4v-11.3c0,0,21.5-9.1,27.6-30L297,331.1z"/>
		</g>
		<g>
			<g>
				<circle fill="#F9AB7F" cx="144.7" cy="235.7" r="18"/>
			</g>
			<g>
				<circle fill="#F9AB7F" cx="371.8" cy="235.7" r="18"/>
			</g>
			<g>
				<path fill="#FEC989" d="M258.2,133.9c-59.1,0-113.6,20.9-113.6,97.3s40.5,103.1,113.6,103.1s113.6-26.8,113.6-103.1
					S317.4,133.9,258.2,133.9z"/>
			</g>
			<g>
				<g>
					<g>
						<circle fill="#414042" cx="213.9" cy="227.2" r="8.5"/>
					</g>
					<g>
						<circle fill="#FFFFFF" cx="210.7" cy="224.8" r="3.2"/>
					</g>
				</g>
				<g>
					<g>
						<circle fill="#414042" cx="302.6" cy="227.2" r="8.5"/>
					</g>
					<g>
						<circle fill="#FFFFFF" cx="299.4" cy="224.8" r="3.2"/>
					</g>
				</g>
			</g>
			<g>
				<path fill="#F79C7A" d="M258.2,235.7c0,0-10.4,17-10.4,27.4s5.8,10.4,10.4,3.9V235.7z"/>
			</g>
			<g>
				<path fill="#BCBEC0" d="M291.2,278.7c-14.1-10.9-33-2.3-33-2.3s-18.9-8.6-33,2.3s-19.9,9.8-19.9,9.8s20.8,21.8,52.8,6.8
					c32,15,52.8-6.8,52.8-6.8S305.3,289.6,291.2,278.7z"/>
			</g>
			<g>
				<path fill="#BCBEC0" d="M258.2,334.3c65.4,0,104.7-21.4,112.2-80.6c-0.7,1.7-17.3,38.9-34.6,44.7c-7.8,2.6-17,4.8-24.7,6.5
					c-8.2,1.8-15.6,6.1-21.5,12c-4.4,4.4-13.4,8.9-31.5,8.9c-18.1,0-27-4.5-31.5-8.9c-5.9-5.9-13.3-10.2-21.5-12
					c-7.7-1.7-16.8-3.9-24.7-6.5c-17.2-5.7-33.8-43-34.6-44.7C153.6,312.9,192.8,334.3,258.2,334.3z"/>
			</g>
			<g>
				<path fill="#414042" d="M257.4,311.1c-12.9,0-22.3-4.5-22.5-4.6c-0.5-0.2-0.7-0.8-0.5-1.3c0.2-0.5,0.8-0.7,1.3-0.5
					c0.2,0.1,20.5,9.8,42.2,0c0.5-0.2,1.1,0,1.3,0.5c0.2,0.5,0,1.1-0.5,1.3C271.3,309.9,263.9,311.1,257.4,311.1z"/>
			</g>
			<g>
				<path fill="#BCBEC0" d="M349,155.4c-26.1-32-90.7-26.8-90.7-26.8s-64.6-5.2-90.7,26.8s-22.9,75.7-22.9,75.7l0,0
					c0,0,11.6-43.4,30.7-64.6c19.1-21.2,39.8-4.6,82.9-4.6c43.1,0,63.8-16.6,82.9,4.6c19.1,21.2,30.7,64.6,30.7,64.6l0,0
					C371.8,231.2,375.1,187.4,349,155.4z"/>
			</g>
			<g>
				<g>
					<path fill="#BCBEC0" d="M207.5,187.2c-16.5,0.4-29.1,20-22.6,24.4c6.5,4.4,14.7-9.1,22.6-8.7s24.4-1.3,22.7-8.3
						C228.4,187.6,207.5,187.2,207.5,187.2z"/>
				</g>
				<g>
					<path fill="#BCBEC0" d="M304.3,187.2c16.5,0.4,29.1,20,22.6,24.4c-6.5,4.4-14.7-9.1-22.6-8.7s-24.4-1.3-22.7-8.3
						C283.3,187.6,304.3,187.2,304.3,187.2z"/>
				</g>
			</g>
		</g>
		<g>
			<path fill="#968D79" d="M183.2,459.2c0,0-0.6-56.4,3.3-83.8v83.8H183.2z"/>
		</g>
		<g>
			<path fill="#968D79" d="M331.3,459.2c0,0,0.6-56.4-3.3-83.8v83.8H331.3z"/>
		</g>
	</g>
	<g>
		<g>
			<path fill="#BCBEC0" d="M436.7,208.9c0,0-19,17.8,0,31.6c0,0-16.2,19.7,5.3,31.1c0,0-3.7,27.5,22,28.9c0,0-3,24.5,26.3,20.8h69.3
				V208.9H436.7z"/>
		</g>
		<g>
			<path fill="#BCBEC0" d="M682.5,208.9c0,0,19,17.8,0,31.6c0,0,16.2,19.7-5.3,31.1c0,0,3.7,27.5-22,28.9c0,0,3,24.5-26.3,20.8
				h-69.3V208.9H682.5z"/>
		</g>
		<g>
			<path fill="#FAB181" d="M509.3,319.8c0,0,28.4,53.6,52.3,53.6s47.6-53.6,47.6-53.6H509.3z"/>
		</g>
		<g>
			<path fill="#F391BC" d="M652,383.5c-2.6-41.8-43.6-73.4-43.6-73.4c-4.7,26.7-47.5,62.2-47.5,62.2s-42.9-35.5-47.5-62.2
				c0,0-41,31.6-43.6,73.4c-2.6,41.8,0,75.7,0,75.7h91.2H652C652,459.2,654.6,425.3,652,383.5z"/>
		</g>
		<g>
			<g>
				<ellipse fill="#F9AB7F" cx="461.6" cy="235.7" rx="15.5" ry="18"/>
			</g>
			<g>
				<ellipse fill="#F9AB7F" cx="657.7" cy="235.7" rx="15.5" ry="18"/>
			</g>
		</g>
		<g>
			<path fill="#FEC989" d="M559.6,128.4c-52,0-99.8,21.5-99.8,100s35.6,106,99.8,106s99.8-27.5,99.8-106S611.6,128.4,559.6,128.4z"
				/>
		</g>
		<g>
			<g>
				<g>
					<circle fill="#414042" cx="515.3" cy="227.2" r="8.5"/>
				</g>
				<g>
					<circle fill="#FFFFFF" cx="512.1" cy="224.8" r="3.2"/>
				</g>
			</g>
			<g>
				<g>
					<circle fill="#414042" cx="604" cy="227.2" r="8.5"/>
				</g>
				<g>
					<circle fill="#FFFFFF" cx="600.8" cy="224.8" r="3.2"/>
				</g>
			</g>
		</g>
		<g>
			<path fill="#F79C7A" d="M564.8,235.7c0,0-10.4,17-10.4,27.4s5.8,10.4,10.4,3.9V235.7z"/>
		</g>
		<g>
			<path fill="#414042" d="M560.1,299.5c-12.9,0-22.3-4.5-22.5-4.6c-0.5-0.2-0.7-0.8-0.5-1.3s0.8-0.7,1.3-0.5
				c0.2,0.1,20.5,9.8,42.2,0c0.5-0.2,1.1,0,1.3,0.5c0.2,0.5,0,1.1-0.5,1.3C574,298.4,566.6,299.5,560.1,299.5z"/>
		</g>
		<g>
			<path fill="#CB789E" d="M485.8,459.2c0,0-0.6-56.4,3.3-83.8v83.8H485.8z"/>
		</g>
		<g>
			<path fill="#CB789E" d="M633.9,459.2c0,0,0.6-56.4-3.3-83.8v83.8H633.9z"/>
		</g>
		<g>
			<path fill="#BCBEC0" d="M685,187.2c-2.6-9.5-11.8-10.7-11.8-10.7s10.5-11.1,5.3-22.4c-5.2-11.3-18.9-10.2-18.9-10.2
				s5.2-13.7-8.8-23.5c-14.1-9.8-31,3.3-31,3.3s1.3-11.8-12.6-17.6s-24.9,4.6-24.9,4.6c-2.3-18.9-22.6-17-22.6-17s-20.3-2-22.6,17
				c0,0-11-10.4-24.9-4.6c-13.9,5.9-12.6,17.6-12.6,17.6s-16.9-13.1-31-3.3c-14.1,9.8-8.8,23.5-8.8,23.5s-13.7-1.1-18.9,10.2
				c-5.2,11.3,5.3,22.4,5.3,22.4s-9.2,1.2-11.8,10.7c-2.6,9.5-1.1,23.5,11.8,30.5c0,0,22.4-3.6,18-27c0,0,20.4-4.4,14.6-22.7
				c0,0,22.8,4.2,25.5-13.9c0,0,28.6,9.4,32.9-5c0,0,10.3,9.1,22.6,9.1s22.6-9.1,22.6-9.1c4.4,14.5,32.9,5,32.9,5
				c2.6,18.1,25.5,13.9,25.5,13.9c-5.9,18.3,14.6,22.7,14.6,22.7c-4.4,23.4,18,27,18,27C686.2,210.7,687.6,196.7,685,187.2z"/>
		</g>
		<g>
			<path fill="#F79C7A" d="M495.1,297.3c-0.4,0-0.8-0.3-1-0.7c-0.2-0.5,0.2-1.1,0.7-1.2c3.5-1,6-2.8,7.2-5.4
				c2.4-4.8,0.1-10.7,0.1-10.7c-0.2-0.5,0-1.1,0.6-1.3c0.5-0.2,1.1,0,1.3,0.6c0.1,0.3,2.6,6.8-0.1,12.4c-1.5,3.1-4.4,5.3-8.5,6.5
				C495.3,297.3,495.2,297.3,495.1,297.3z"/>
		</g>
		<g>
			<path fill="#F79C7A" d="M626.5,297.3c-0.1,0-0.2,0-0.3,0c-4.1-1.2-7-3.3-8.5-6.5c-2.7-5.6-0.2-12.1-0.1-12.4
				c0.2-0.5,0.8-0.8,1.3-0.6c0.5,0.2,0.8,0.8,0.6,1.3c0,0.1-2.3,6,0.1,10.8c1.3,2.6,3.7,4.4,7.2,5.4c0.5,0.2,0.8,0.7,0.7,1.2
				C627.3,297,626.9,297.3,626.5,297.3z"/>
		</g>
		<g>
			<path fill="#BCBEC0" d="M499.2,208.7c-0.2,0-0.4,0-0.6-0.1c-0.8-0.3-1.1-1.2-0.8-2c0.1-0.2,7.3-16.3,28.8-13.8
				c0.8,0.1,1.4,0.8,1.3,1.7c-0.1,0.8-0.8,1.4-1.7,1.3c-19.3-2.3-25.7,11.9-25.7,12C500.3,208.3,499.8,208.7,499.2,208.7z"/>
		</g>
		<g>
			<path fill="#BCBEC0" d="M622.4,208.7c-0.6,0-1.1-0.3-1.4-0.9c-0.3-0.6-6.5-14.3-25.7-12c-0.8,0.1-1.6-0.5-1.7-1.3
				c-0.1-0.8,0.5-1.6,1.3-1.7c21.5-2.5,28.8,13.6,28.8,13.8c0.3,0.8,0,1.6-0.8,2C622.8,208.6,622.6,208.7,622.4,208.7z"/>
		</g>
		<g>
			<path fill="#F9C9DE" d="M560.8,372.3c0,0-11.8,17-22.7,14.8c-11-2.2-15.9-56.9-15.9-56.9S537.9,354.1,560.8,372.3z"/>
		</g>
		<g>
			<path fill="#F9C9DE" d="M560.8,372.3c0,0,11.8,17,22.7,14.8c11-2.2,15.9-56.9,15.9-56.9S583.7,354.1,560.8,372.3z"/>
		</g>
		<g>
			<ellipse fill="#F8A890" cx="504.2" cy="249.6" rx="15.7" ry="8.3"/>
		</g>
		<g>
			<ellipse fill="#F8A890" cx="617.5" cy="249.6" rx="15.7" ry="8.3"/>
		</g>
	</g>
	<g>
		<g>
			<path fill="#FFFFFF" d="M804.8,325.2c0,0,29.3,87.1,53.8,87.1c24.5,0,49-87.1,49-87.1H804.8z"/>
		</g>
		<g>
			<polygon fill="#58595B" points="861.2,348.6 856.8,348.6 852.4,348.6 844.4,390.7 856.8,408.8 869.2,390.7 			"/>
		</g>
		<g>
			<path fill="#58595B" d="M856.8,331.2l-12.1,7.4c0,0,4.9,9,6.2,10c1.2,1.1,3.3,1.7,5.9,1.7s4.7-0.6,5.9-1.7c1.2-1.1,6.2-10,6.2-10
				L856.8,331.2z"/>
		</g>
		<g>
			<path fill="#D1D3D4" d="M857.4,334.3c0,0-20.1,16-24.1,16c-4,0-14.4-19.2-14.4-19.2L857.4,334.3z"/>
		</g>
		<g>
			<path fill="#D1D3D4" d="M856.1,334.3c0,0,20.1,16,24.1,16c4,0,14.4-19.2,14.4-19.2L856.1,334.3z"/>
		</g>
		<g>
			<path fill="#414042" d="M947.9,383.5c-2.6-41.8-43.6-73.4-43.6-73.4c-4.7,26.7-47.5,98.7-47.5,98.7s-42.9-71.9-47.5-98.7
				c0,0-41,31.6-43.6,73.4c-2.6,41.8,0,75.7,0,75.7h91.2h91.2C947.9,459.2,950.6,425.3,947.9,383.5z"/>
		</g>
		<g>
			<path fill="#717375" d="M843.3,384.4c0,0-39.6-34.3-39.3-38.1c0.2-3.8,11.1-18.2,11.1-18.2L843.3,384.4z"/>
		</g>
		<g>
			<path fill="#5F6062" d="M856.8,408.8c0,0-42.1-28.3-40.2-30.8c1.9-2.5,14.3-16,14.3-16L856.8,408.8z"/>
		</g>
		<g>
			<path fill="#717375" d="M870.3,384.4c0,0,39.6-34.3,39.3-38.1c-0.2-3.8-11.1-18.2-11.1-18.2L870.3,384.4z"/>
		</g>
		<g>
			<path fill="#5F6062" d="M856.8,408.8c0,0,42.1-28.3,40.2-30.8c-1.9-2.5-14.3-16-14.3-16L856.8,408.8z"/>
		</g>
		<g>
			<circle fill="#F9AB7F" cx="743.2" cy="235.7" r="18"/>
		</g>
		<g>
			<circle fill="#F9AB7F" cx="970.4" cy="235.7" r="18"/>
		</g>
		<g>
			<path fill="#FEC989" d="M856.8,133.9c-59.1,0-113.6,20.9-113.6,97.3s40.5,103.1,113.6,103.1s113.6-26.8,113.6-103.1
				S915.9,133.9,856.8,133.9z"/>
		</g>
		<g>
			<g>
				<g>
					<circle fill="#414042" cx="812.4" cy="227.2" r="8.5"/>
				</g>
				<g>
					<circle fill="#FFFFFF" cx="809.3" cy="224.8" r="3.2"/>
				</g>
			</g>
			<g>
				<g>
					<circle fill="#414042" cx="901.1" cy="227.2" r="8.5"/>
				</g>
				<g>
					<circle fill="#FFFFFF" cx="898" cy="224.8" r="3.2"/>
				</g>
			</g>
		</g>
		<g>
			<path fill="#F79C7A" d="M856.8,235.7c0,0-10.4,17-10.4,27.4s5.8,10.4,10.4,3.9V235.7z"/>
		</g>
		<g>
			<path fill="#594A42" d="M884.4,280c-11.8-9.1-27.6-1.9-27.6-1.9s-15.8-7.2-27.6,1.9c-11.8,9.1-16.6,8.2-16.6,8.2
				s17.4,18.2,44.2,5.7c26.8,12.6,44.2-5.7,44.2-5.7S896.1,289.1,884.4,280z"/>
		</g>
		<g>
			<path fill="#414042" d="M856,311.1c-12.9,0-22.3-4.5-22.5-4.6c-0.5-0.2-0.7-0.8-0.5-1.3c0.2-0.5,0.8-0.7,1.3-0.5
				c0.2,0.1,20.5,9.8,42.2,0c0.5-0.2,1.1,0,1.3,0.5c0.2,0.5,0,1.1-0.5,1.3C869.9,309.9,862.5,311.1,856,311.1z"/>
		</g>
		<g>
			<path fill="#333334" d="M781.7,459.2c0,0-0.6-56.4,3.3-83.8v83.8H781.7z"/>
		</g>
		<g>
			<path fill="#333334" d="M929.9,459.2c0,0,0.6-56.4-3.3-83.8v83.8H929.9z"/>
		</g>
		<g>
			
				<ellipse transform="matrix(0.9788 -0.2049 0.2049 0.9788 -25.3908 170.0425)" fill="#594A42" cx="808.3" cy="207.6" rx="18.1" ry="6.2"/>
		</g>
		<g>
			
				<ellipse transform="matrix(-0.9788 -0.2049 0.2049 -0.9788 1752.7083 596.7343)" fill="#594A42" cx="907.3" cy="207.6" rx="18.1" ry="6.2"/>
		</g>
		<g>
			<path fill="#594A42" d="M743.2,227c0,0,20.4-19.3,27.2-48.1s45-15.7,86.4-15.7c41.4,0,64.6-7.6,68.3-3s25.2,52.6,45.3,57.5
				c0,0,11.1-68.7-29.3-89.6c0,0-0.4-34.2-84.3-38.3S719.4,147.9,743.2,227z"/>
		</g>
		<g>
			<circle fill="#58595B" cx="857.4" cy="417.3" r="3.7"/>
		</g>
		<g>
			<circle fill="#58595B" cx="857.4" cy="441.5" r="3.7"/>
		</g>
	</g>
	<g>
		<g>
			<path fill="#594A42" d="M1091,337.2c0,0-42.2-1.6-58.1-24.2c0,0,20.5-5.4,6-28.6s-30.6-82.6,0-142.7s159-69.1,165.4-27
				c0,0,11.8-18.9,35.7,3c54.8,50.3,28.5,129.5,15,156.8c-10.7,21.7,12.8,34.7,12.8,34.7s-27.2,26.2-71.8,24S1091,337.2,1091,337.2z
				"/>
		</g>
		<g>
			<path fill="#FAB181" d="M1096.2,322.7c0,0,28.4,53.6,52.3,53.6c23.8,0,47.6-53.6,47.6-53.6H1096.2z"/>
		</g>
		<g>
			<path fill="#F7941E" d="M1238.8,386.4c-2.6-41.8-43.6-73.4-43.6-73.4c-2.1,11.9-11.8,25.6-21.8,37.1c-13.6,15.5-37.7,15.5-51.4,0
				c-10.1-11.5-19.8-25.2-21.8-37.1c0,0-41,31.6-43.6,73.4c-2.6,41.8,0,75.7,0,75.7h91.2h91.2
				C1238.8,462.1,1241.4,428.2,1238.8,386.4z"/>
		</g>
		<g>
			<g>
				<ellipse fill="#F9AB7F" cx="1048.4" cy="238.6" rx="15.5" ry="18"/>
			</g>
			<g>
				<ellipse fill="#F9AB7F" cx="1244.5" cy="238.6" rx="15.5" ry="18"/>
			</g>
		</g>
		<g>
			<path fill="#FEC989" d="M1146.5,131.3c-52,0-99.8,21.5-99.8,100s35.6,106,99.8,106s99.8-27.5,99.8-106S1198.5,131.3,1146.5,131.3
				z"/>
		</g>
		<g>
			<g>
				<g>
					<circle fill="#414042" cx="1102.1" cy="230.1" r="8.5"/>
				</g>
				<g>
					<circle fill="#FFFFFF" cx="1099" cy="227.7" r="3.2"/>
				</g>
			</g>
			<g>
				<g>
					<circle fill="#414042" cx="1190.8" cy="230.1" r="8.5"/>
				</g>
				<g>
					<circle fill="#FFFFFF" cx="1187.7" cy="227.7" r="3.2"/>
				</g>
			</g>
		</g>
		<g>
			<path fill="#F79C7A" d="M1151.7,238.6c0,0-10.4,17-10.4,27.4c0,10.4,5.8,10.4,10.4,3.9V238.6z"/>
		</g>
		<g>
			<path fill="#414042" d="M1147,302.4c-12.9,0-22.3-4.5-22.5-4.6c-0.5-0.2-0.7-0.8-0.5-1.3c0.2-0.5,0.8-0.7,1.3-0.5
				c0.2,0.1,20.5,9.8,42.2,0c0.5-0.2,1.1,0,1.3,0.5c0.2,0.5,0,1.1-0.5,1.3C1160.9,301.3,1153.5,302.4,1147,302.4z"/>
		</g>
		<g>
			<path fill="#D27E18" d="M1072.6,462.1c0,0-0.6-56.4,3.3-83.8v83.8H1072.6z"/>
		</g>
		<g>
			<path fill="#D27E18" d="M1220.8,462.1c0,0,0.6-56.4-3.3-83.8v83.8H1220.8z"/>
		</g>
		<g>
			<path fill="#414042" d="M1085,208.5c-0.3,0-0.6-0.1-0.9-0.3c-0.7-0.5-0.8-1.4-0.3-2.1c0.1-0.1,10.6-14.4,31.1-7.3
				c0.8,0.3,1.2,1.1,0.9,1.9c-0.3,0.8-1.1,1.2-1.9,0.9c-18.4-6.3-27.6,6.1-27.7,6.2C1085.9,208.3,1085.5,208.5,1085,208.5z"/>
		</g>
		<g>
			<path fill="#414042" d="M1210.3,208.9c-0.5,0-0.9-0.2-1.2-0.7l0,0c-0.4-0.5-9.1-12.8-27.5-7c-0.8,0.2-1.6-0.2-1.9-1
				s0.2-1.6,1-1.9c20.7-6.5,30.8,8,30.9,8.1c0.5,0.7,0.3,1.6-0.4,2.1C1210.9,208.8,1210.6,208.9,1210.3,208.9z"/>
		</g>
		<g>
			<ellipse fill="#F8A890" cx="1091" cy="252.5" rx="15.7" ry="8.3"/>
		</g>
		<g>
			<ellipse fill="#F8A890" cx="1204.3" cy="252.5" rx="15.7" ry="8.3"/>
		</g>
		<g>
			<path fill="#594A42" d="M1042.9,210c0,0,58.6-11.8,78.3-50.1c0,0,38.5,31,83.2,33.2c0,0-5.7-16.9-15.7-24.2
				c0,0,40.7,26.5,55.9,78.3c0,0,12.4-27.6-2.3-78.3c-14.6-50.7-101.4-50.7-127.9-42.8S1051.4,140.2,1042.9,210z"/>
		</g>
		<g>
			<path fill="#FFCD69" d="M1109,333.1c0,0-10.2,9.4-2.3,16.4c7.9,6.9,15.3,0.6,15.3,0.6s-7.4,10.9,2.9,16.5
				c10.3,5.6,22.7-4.9,22.7-4.9S1128.1,358.3,1109,333.1z"/>
		</g>
		<g>
			<path fill="#FFCD69" d="M1186.4,333.1c0,0,10.2,9.4,2.3,16.4c-7.9,6.9-15.3,0.6-15.3,0.6s7.4,10.9-2.9,16.5
				c-10.3,5.6-22.7-4.9-22.7-4.9S1167.2,358.3,1186.4,333.1z"/>
		</g>
		<g>
			<circle fill="#F1F2F2" cx="1042.9" cy="256.6" r="4.5"/>
		</g>
		<g>
			<circle fill="#F1F2F2" cx="1249.4" cy="256.6" r="4.5"/>
		</g>
	</g>
</g>
<g>
	<g>
		<g>
			<path fill="#FAB181" d="M250.1,756.7c0,0,25.1,36.8,46.1,36.8c21,0,42-36.8,42-36.8H250.1z"/>
		</g>
		<g>
			<path fill="#00AEEF" d="M386.9,812c-2.6-41.8-43.6-73.4-43.6-73.4c-4.7,26.7-47.5,54.9-47.5,54.9s-42.9-28.2-47.5-54.9
				c0,0-41,31.6-43.6,73.4s0,75.7,0,75.7h91.2h91.2C386.9,887.7,389.5,853.8,386.9,812z"/>
		</g>
		<g>
			<circle fill="#F9AB7F" cx="182.1" cy="664.3" r="18"/>
		</g>
		<g>
			<circle fill="#F9AB7F" cx="409.3" cy="664.3" r="18"/>
		</g>
		<g>
			<path fill="#FEC989" d="M295.7,562.4c-59.1,0-113.6,20.9-113.6,97.3s40.5,103.1,113.6,103.1s113.6-26.8,113.6-103.1
				S354.8,562.4,295.7,562.4z"/>
		</g>
		<g>
			<g>
				<g>
					<circle fill="#414042" cx="251.4" cy="655.8" r="8.5"/>
				</g>
				<g>
					<circle fill="#FFFFFF" cx="248.2" cy="653.4" r="3.2"/>
				</g>
			</g>
			<g>
				<g>
					<circle fill="#414042" cx="340.1" cy="655.8" r="8.5"/>
				</g>
				<g>
					<circle fill="#FFFFFF" cx="336.9" cy="653.4" r="3.2"/>
				</g>
			</g>
		</g>
		<g>
			<path fill="#F79C7A" d="M295.7,667.1c0,0-10.4,17-10.4,27.4s5.8,10.4,10.4,3.9V667.1z"/>
		</g>
		<g>
			<path fill="#414042" d="M294.6,732.2c-12.9,0-22.3-4.5-22.5-4.6c-0.5-0.2-0.7-0.8-0.5-1.3c0.2-0.5,0.8-0.7,1.3-0.5
				c0.2,0.1,20.5,9.8,42.2,0c0.5-0.2,1.1,0,1.3,0.5c0.2,0.5,0,1.1-0.5,1.3C308.5,731,301.1,732.2,294.6,732.2z"/>
		</g>
		<g>
			<path fill="#0098D1" d="M220.6,887.7c0,0-0.6-56.4,3.3-83.8v83.8H220.6z"/>
		</g>
		<g>
			<path fill="#0098D1" d="M368.8,887.7c0,0,0.6-56.4-3.3-83.8v83.8H368.8z"/>
		</g>
		<g>
			<ellipse fill="#F8A890" cx="239.1" cy="682.3" rx="15.7" ry="8.3"/>
		</g>
		<g>
			<ellipse fill="#F8A890" cx="352.4" cy="682.3" rx="15.7" ry="8.3"/>
		</g>
		<g>
			<path fill="#726658" d="M182.1,646.3c0,0,34-9.7,60.7-57.8c0,0,64.7,20.5,105.7,22.2c47.1,1.9,60.6,42.7,60.6,42.7
				s18.8-66.4-17.9-86.6c0,0,5.8-33.8-76.2-43.9c-82-10.1-74-12.4-76-19.7c0,0-6.4,16.9,0,27c0,0-13.6-1.1-15.7-11.3
				c0,0-5.3,12.4,0.5,21.4C223.9,540.2,162.2,550.7,182.1,646.3z"/>
		</g>
		<g>
			<path fill="#7BD3F7" d="M295.7,793.5c0,0-21.9,16.5-23.1,15.4c-1.2-1.1-13.9-48.9-13.9-48.9L295.7,793.5z"/>
		</g>
		<g>
			<path fill="#7BD3F7" d="M297.1,793.5c0,0,21.9,16.5,23.1,15.4c1.2-1.1,13.9-48.9,13.9-48.9L297.1,793.5z"/>
		</g>
		<g>
			<path fill="#414042" d="M233.6,637.4c-0.2,0-0.5-0.1-0.7-0.3c-0.4-0.4-0.4-1,0-1.4c0.4-0.4,10.1-10.5,25.8-9.9c0.6,0,1,0.5,1,1
				c0,0.6-0.5,1-1,1c-14.8-0.5-24.2,9.2-24.3,9.3C234.2,637.3,233.9,637.4,233.6,637.4z"/>
		</g>
		<g>
			<path fill="#414042" d="M356.6,637.4c-0.3,0-0.5-0.1-0.7-0.3c-0.1-0.1-9.5-9.8-24.3-9.3c-0.6,0-1-0.4-1-1c0-0.6,0.4-1,1-1
				c15.8-0.6,25.4,9.5,25.8,9.9c0.4,0.4,0.4,1,0,1.4C357.1,637.3,356.9,637.4,356.6,637.4z"/>
		</g>
	</g>
	<g>
		<g>
			<path fill="#726658" d="M539,749.3c0,0-40-3.8-44.2,44.2C494.8,793.5,536.4,790.2,539,749.3z"/>
		</g>
		<g>
			<path fill="#726658" d="M659.6,749.3c0,0,40-3.8,44.2,44.2C703.8,793.5,662.2,790.2,659.6,749.3z"/>
		</g>
		<g>
			<path fill="#726658" d="M674.8,580.4c-43.4-30.7-77-15.2-77-15.2v0.1c-2.2-1-35-14.3-76.9,15.3c-42.2,29.8-56.9,150.6,24.7,186.7
				h52.4v-0.1h52.2C731.7,731,717,610.2,674.8,580.4z"/>
		</g>
		<g>
			<path fill="#FAB181" d="M553.3,765.4c0,0,25.4,47.8,46.7,47.8c21.3,0,42.5-47.8,42.5-47.8H553.3z"/>
		</g>
		<g>
			<path fill="#7ECBB3" d="M680.7,822.3c-2.3-37.3-38.9-65.5-38.9-65.5c-4.2,23.9-43.5,41.2-43.5,41.2s-37.2-17.4-41.4-41.2
				c0,0-36.6,28.2-38.9,65.5c-2.3,37.3,0,67.6,0,67.6h81.4h81.4C680.7,889.9,683,859.6,680.7,822.3z"/>
		</g>
		<g>
			<g>
				<ellipse fill="#F9AB7F" cx="510.7" cy="690.4" rx="13.9" ry="16.1"/>
			</g>
			<g>
				<ellipse fill="#F9AB7F" cx="685.8" cy="690.4" rx="13.9" ry="16.1"/>
			</g>
		</g>
		<g>
			<path fill="#FEC989" d="M598.2,594.5c-46.4,0-89.1,19.2-89.1,89.2s31.7,94.6,89.1,94.6s89.1-24.6,89.1-94.6
				S644.6,594.5,598.2,594.5z"/>
		</g>
		<g>
			<path fill="#F79C7A" d="M602.9,694.3c0,0-9.3,15.2-9.3,24.5c0,9.3,5.2,9.3,9.3,3.5V694.3z"/>
		</g>
		<g>
			<path fill="#414042" d="M598.7,751.4c-11.6,0-20-4-20.1-4.1c-0.5-0.2-0.7-0.8-0.5-1.3c0.2-0.5,0.8-0.7,1.3-0.5
				c0.2,0.1,18.2,8.8,37.6,0c0.5-0.2,1.1,0,1.3,0.5c0.2,0.5,0,1.1-0.5,1.3C611.1,750.3,604.5,751.4,598.7,751.4z"/>
		</g>
		<g>
			<path fill="#6AAD99" d="M532.3,889.9c0,0-0.6-50.3,2.9-74.8v74.8H532.3z"/>
		</g>
		<g>
			<path fill="#6AAD99" d="M664.6,889.9c0,0,0.6-50.3-2.9-74.8v74.8H664.6z"/>
		</g>
		<g>
			<ellipse fill="#F8A890" cx="548.7" cy="706.7" rx="14" ry="7.4"/>
		</g>
		<g>
			<ellipse fill="#F8A890" cx="649.9" cy="706.7" rx="14" ry="7.4"/>
		</g>
		<g>
			<path fill="#726658" d="M685.9,658.7c-16-84.6-81.3-80.9-88-80.3c-6.8-0.6-72-4.3-88,80.3c0,0,67.7-0.8,88-30.4
				C618.1,657.9,685.9,658.7,685.9,658.7z"/>
		</g>
		<g>
			<path fill="#414042" d="M579,693.7c-0.4,0-0.7-0.2-0.9-0.5c-3.5-6.6-7.4-10-11.8-10.2c-8.1-0.4-15.3,10.2-15.3,10.3
				c-0.3,0.5-0.9,0.6-1.4,0.3c-0.5-0.3-0.6-0.9-0.3-1.4c0.3-0.5,7.8-11.7,17.1-11.2c5.1,0.3,9.7,4.1,13.5,11.3
				c0.3,0.5,0.1,1.1-0.4,1.4C579.3,693.6,579.2,693.7,579,693.7z"/>
		</g>
		<g>
			<path fill="#414042" d="M542.2,674.3c-0.2,0-0.4-0.1-0.6-0.2c-0.5-0.3-0.6-0.9-0.3-1.4c0.1-0.2,12-17.1,31.8-4.7
				c0.5,0.3,0.6,0.9,0.3,1.4c-0.3,0.5-0.9,0.6-1.4,0.3c-18.1-11.4-28.6,3.5-29.1,4.2C542.9,674.1,542.6,674.3,542.2,674.3z"/>
		</g>
		<g>
			<g>
				<path fill="#414042" d="M620.3,692.7c-0.2,0-0.3,0-0.5-0.1c-0.5-0.3-0.7-0.9-0.4-1.4c3.8-7.2,8.4-11,13.5-11.3
					c9.3-0.4,16.8,10.7,17.1,11.2c0.3,0.5,0.2,1.1-0.3,1.4c-0.5,0.3-1.1,0.2-1.4-0.3c-0.1-0.1-7.2-10.7-15.3-10.3
					c-4.4,0.2-8.4,3.7-11.8,10.2C621,692.5,620.6,692.7,620.3,692.7z"/>
			</g>
			<g>
				<path fill="#414042" d="M657,673.3c-0.3,0-0.6-0.2-0.8-0.4c-0.4-0.6-11-15.5-29.1-4.2c-0.5,0.3-1.1,0.2-1.4-0.3
					c-0.3-0.5-0.2-1.1,0.3-1.4c19.7-12.4,31.6,4.6,31.8,4.7c0.3,0.5,0.2,1.1-0.3,1.4C657.4,673.3,657.2,673.3,657,673.3z"/>
			</g>
		</g>
		<g>
			<path fill="#B5DCB3" d="M599,798c0,0-1.1,16.1-19.7,11.3s-12.5-34-12.5-34S596.2,791.6,599,798z"/>
		</g>
		<g>
			<path fill="#B5DCB3" d="M598.6,798c0,0,1.1,16.1,19.7,11.3c18.6-4.9,12.5-34,12.5-34S601.4,791.6,598.6,798z"/>
		</g>
		<g>
			<circle fill="#B5DCB3" cx="599" cy="818.6" r="3.9"/>
		</g>
		<g>
			<circle fill="#B5DCB3" cx="599.3" cy="845.9" r="3.9"/>
		</g>
		<g>
			<circle fill="#B5DCB3" cx="599.6" cy="873.1" r="3.9"/>
		</g>
	</g>
	<g>
		<g>
			<path fill="#A50D12" d="M790.2,656.8c0,0-49.2,45.8-14.8,69.5c34.4,23.7,130.4-2.8,163.9-36.8c33.4-34,32.7-39.1,32.7-39.1
				L790.2,656.8z"/>
		</g>
		<g>
			<circle fill="#CA171E" cx="877.3" cy="582.1" r="10.8"/>
		</g>
		<g>
			<path fill="#FAB181" d="M840.3,771.1c0,0,24.5,46.2,45.1,46.2c20.5,0,41-46.2,41-46.2H840.3z"/>
		</g>
		<g>
			<path fill="#8DC63F" d="M963.3,826c-2.3-36-37.6-63.3-37.6-63.3c-2.2,12.7-14.7,23.4-25.5,30.6c-10.1,6.7-23.2,6.4-33.1-0.7
				c-10-7.1-21.2-17.6-23.4-29.9c0,0-35.4,27.2-37.6,63.3c-2.3,36,0,65.3,0,65.3h78.6h78.6C963.3,891.3,965.5,862,963.3,826z"/>
		</g>
		<g>
			<g>
				<ellipse fill="#F9AB7F" cx="799.1" cy="698.7" rx="13.4" ry="15.5"/>
			</g>
			<g>
				<ellipse fill="#F9AB7F" cx="968.2" cy="698.7" rx="13.4" ry="15.5"/>
			</g>
		</g>
		<g>
			<path fill="#96CD82" d="M926.4,772.8h-4.6c-5,8.3-13.7,15.4-21.5,20.5c-10.1,6.7-23.2,6.4-33.1-0.7c-7.2-5.1-14.9-11.9-19.6-19.9
				h-4.9c0,0,8.8,32,41,32C915.9,804.8,923.3,781.4,926.4,772.8z"/>
		</g>
		<g>
			<path fill="#FEC989" d="M883.7,606.1c-44.8,0-86.1,18.5-86.1,86.2s30.7,91.4,86.1,91.4c55.4,0,86.1-23.7,86.1-91.4
				S928.5,606.1,883.7,606.1z"/>
		</g>
		<g>
			<path fill="#F79C7A" d="M888.2,702.5c0,0-9,14.6-9,23.6s5,9,9,3.4V702.5z"/>
		</g>
		<g>
			<path fill="#6E9F31" d="M820,891.3c0,0-0.6-48.6,2.8-72.2v72.2H820z"/>
		</g>
		<g>
			<path fill="#6E9F31" d="M947.7,891.3c0,0,0.6-48.6-2.8-72.2v72.2H947.7z"/>
		</g>
		<g>
			<ellipse fill="#F8A890" cx="835.9" cy="714.4" rx="13.5" ry="7.1"/>
		</g>
		<g>
			<ellipse fill="#F8A890" cx="933.5" cy="714.4" rx="13.5" ry="7.1"/>
		</g>
		<g>
			<path fill="#F79878" d="M886.3,748.4h-37c7.5,27,37,24.3,37,24.3s29.4,2.6,37-24.3H886.3z"/>
		</g>
		<g>
			<path fill="#F3716C" d="M920.1,756.2c-32.4-13.4-51.7,4.3-57.4,10.7c10.9,6.9,23.6,5.8,23.6,5.8S909.6,774.8,920.1,756.2z"/>
		</g>
		<g>
			<path fill="#FFFFFF" d="M886.3,753.3c0,0,31.2,0.4,31.9,0c0.5-0.3,1.4-3.3,1.8-4.9h-33.7h-33.7c0.4,1.7,1.2,4.7,1.8,4.9
				C855.2,753.7,886.3,753.3,886.3,753.3z"/>
		</g>
		<g>
			<g>
				<g>
					<circle fill="#414042" cx="845" cy="691.7" r="7.7"/>
				</g>
				<g>
					<circle fill="#FFFFFF" cx="842.1" cy="689.5" r="2.9"/>
				</g>
			</g>
			<g>
				<g>
					<circle fill="#414042" cx="925" cy="691.7" r="7.7"/>
				</g>
				<g>
					<circle fill="#FFFFFF" cx="922.1" cy="689.5" r="2.9"/>
				</g>
			</g>
		</g>
		<g>
			<path fill="#414042" d="M835.9,671.7c-0.2,0-0.3,0-0.5-0.1c-0.5-0.3-0.6-0.9-0.4-1.4c0.2-0.3,4.4-7.5,10.4-7.5c0,0,0,0,0,0
				c3.6,0,6.9,2.5,9.8,7.5c0.3,0.5,0.1,1.1-0.3,1.4s-1.1,0.1-1.4-0.3c-2.6-4.3-5.3-6.5-8.1-6.5c0,0,0,0,0,0c-4.9,0-8.6,6.4-8.7,6.5
				C836.5,671.5,836.2,671.7,835.9,671.7z"/>
		</g>
		<g>
			<path fill="#414042" d="M912.9,671.7c-0.2,0-0.4,0-0.5-0.1c-0.5-0.3-0.6-0.9-0.3-1.4c3-5,6.3-7.5,9.8-7.5c0,0,0,0,0,0
				c6,0,10.2,7.2,10.4,7.5c0.3,0.5,0.1,1.1-0.4,1.4c-0.5,0.3-1.1,0.1-1.4-0.4c0-0.1-3.8-6.5-8.7-6.5c0,0,0,0,0,0
				c-2.8,0-5.5,2.2-8.1,6.5C913.5,671.5,913.2,671.7,912.9,671.7z"/>
		</g>
		<g>
			<path fill="#ED1C24" d="M790.2,656.8l181.7-6.4c0,0-3.7-66.3-87.2-68.3C790.2,579.9,790.2,656.8,790.2,656.8z"/>
		</g>
		<g>
			<path fill="#726658" d="M862.7,646.7l45.8-1.9c0,0-1.5-19.5-22.9-20.3C864.2,623.8,862.7,646.7,862.7,646.7z"/>
		</g>
		<g>
			<path fill="#726658" d="M790.2,656.8c0,0-0.9,44.1,8.9,57.3l6-57.9L790.2,656.8z"/>
		</g>
		<g>
			<path fill="#726658" d="M958,650.9l11.2,55.5c0,0,6.3-39.8,2.7-56L958,650.9z"/>
		</g>
		<g>
			<path fill="#726658" d="M860.1,654.4c0,0,7.9,28,45.4,22.4c0,0,9.8-12.1,3-24.1L860.1,654.4z"/>
		</g>
	</g>
	<g>
		<g>
			<path fill="#A3A5A8" d="M1083.7,781.7c0,0-7.3-15.4-21-18.4c-13.7-3-17.1-19.6-17.1-19.6s-3,23.9,3,29.7c0,0-5.1-2.9-6-5.8
				c0,0-6.7,30.3,17.2,34.9C1083.7,807,1083.7,781.7,1083.7,781.7z"/>
		</g>
		<g>
			<path fill="#B6B8BA" d="M1188.6,779.6l-58.9,9.4l-58.9-9.4c0,0-16.4,16.5-12.4,52.5s5.9,58.3,5.9,58.3h65.4h0.1h65.4
				c0,0,1.9-22.3,5.9-58.3C1205,796.1,1188.6,779.6,1188.6,779.6z"/>
		</g>
		<g>
			<path fill="#CFD1D2" d="M1175.2,751.6h-45.4h-0.1h-45.4c0,0-19.2,22.4-17.6,63.1c1.6,40.7,5,75.7,5,75.7h43.3
				c0,0-6.4-76.8,14.7-76.9c21.2,0.1,14.7,76.9,14.7,76.9h43.3c0,0,3.4-34.9,5-75.7C1194.4,774,1175.2,751.6,1175.2,751.6z"/>
		</g>
		<g>
			<path fill="#F7941E" d="M1086.9,755.1c0,0,4.5,38.6,42.9,38.6c38.4,0,42.9-38.6,42.9-38.6H1086.9z"/>
		</g>
		<g>
			<path fill="#E6E7E8" d="M1192.8,695.6c-2.6-48.9-15.4-86.4-63-86.4c-47.6,0-60.4,37.5-63,86.4c-2.6,48.9,41.8,88.5,63,88.5
				C1151,784,1195.4,744.4,1192.8,695.6z"/>
		</g>
		<g>
			<path fill="#E6E7E8" d="M1091.3,622.1c0,0-19.3-11.4-31.5,0.6s-45,42.2-32.1,56.7c12.9,14.5,50.2-38.5,50.2-38.5
				S1095.8,637.2,1091.3,622.1z"/>
		</g>
		<g>
			<path fill="#E6E7E8" d="M1169.2,626.4c0,0,19.3-11.4,31.5,0.6c12.2,12,45,42.2,32.1,56.7c-12.9,14.5-50.2-38.5-50.2-38.5
				S1164.7,641.4,1169.2,626.4z"/>
		</g>
		<g>
			<g>
				<path fill="#594A42" d="M1129.8,733.7c-18.3,0-20.8,6.7-19,14.1s11.6,11,19,11c7.3,0,17.1-3.7,19-11S1148.1,733.7,1129.8,733.7z
					"/>
			</g>
			<g>
				<ellipse fill="#7B665B" cx="1129.8" cy="739.7" rx="8.9" ry="2.7"/>
			</g>
		</g>
		<g>
			<path fill="#ABADB0" d="M1150.7,652.8c-13.2,6.9-2.6,29.2,0,36.9c2.6,7.7,12.5,23.7,27.3,14.8c14.8-8.9,8.4-29.3,2.9-36.6
				S1162.9,646.4,1150.7,652.8z"/>
		</g>
		<g>
			<g>
				<g>
					<circle fill="#414042" cx="1091.1" cy="678" r="7.4"/>
				</g>
				<g>
					<circle fill="#FFFFFF" cx="1088.3" cy="675.8" r="2.8"/>
				</g>
			</g>
			<g>
				<g>
					<circle fill="#414042" cx="1168.5" cy="678" r="7.4"/>
				</g>
				<g>
					<circle fill="#FFFFFF" cx="1165.7" cy="675.8" r="2.8"/>
				</g>
			</g>
		</g>
		<g>
			<path fill="#ABADB0" d="M1091.3,622.1c0,0-14.6-8.6-26.5-3c4.3,11.5,16.5,26.3,35.7,25.7c27.9-0.9,27-32.6,27-32.6
				c0.1-1.1,0-2.1-0.1-3.1C1111.7,609.7,1100,614.3,1091.3,622.1C1091.3,622.1,1091.3,622.1,1091.3,622.1z"/>
		</g>
		<g>
			<ellipse fill="#F7941E" cx="1129.8" cy="798.3" rx="9.2" ry="10.2"/>
		</g>
		<g>
			<circle fill="#FEBE10" cx="1129.8" cy="796.7" r="9.2"/>
		</g>
		<g>
			<path fill="#95979A" d="M1088.9,808c-1-17.3-10-26.2-17.5-30.6c-3.1,9.8-5.3,22.3-4.7,37.3c0.3,8.4,0.7,16.6,1.2,24.2
				C1078.7,835.7,1090,827.3,1088.9,808z"/>
		</g>
		<g>
			<path fill="#95979A" d="M1192.7,816.4c-26.4,16.1-30.4,28.6-20.1,47.2c3.3,5.9,9.7,7.7,16.8,6.9
				C1190.5,856.9,1191.9,837.5,1192.7,816.4z"/>
		</g>
	</g>
</g>
</svg>
