<?xml version="1.0" encoding="UTF-8" standalone="no"?>
<svg
   xmlns:dc="http://purl.org/dc/elements/1.1/"
   xmlns:cc="http://creativecommons.org/ns#"
   xmlns:rdf="http://www.w3.org/1999/02/22-rdf-syntax-ns#"
   xmlns:svg="http://www.w3.org/2000/svg"
   xmlns="http://www.w3.org/2000/svg"
   viewBox="0 0 608.56 405.33334"
   height="405.33334"
   width="608.56"
   xml:space="preserve"
   id="svg2"
   version="1.1"><metadata
     id="metadata8"><rdf:RDF><cc:Work
         rdf:about=""><dc:format>image/svg+xml</dc:format><dc:type
           rdf:resource="http://purl.org/dc/dcmitype/StillImage" /></cc:Work></rdf:RDF></metadata><defs
     id="defs6" /><g
     transform="matrix(1.3333333,0,0,-1.3333333,0,405.33333)"
     id="g10"><g
       transform="scale(0.1)"
       id="g12"><path
         id="path14"
         style="fill:#fbcb3a;fill-opacity:1;fill-rule:nonzero;stroke:none"
         d="M 4564.17,0 H 3042.79 V 1521.39 H 4564.17 V 0" /><path
         id="path16"
         style="fill:#ffffff;fill-opacity:1;fill-rule:nonzero;stroke:none"
         d="m 3803.49,427.012 c -184.3,0 -333.71,149.398 -333.71,333.687 0,184.289 149.41,333.701 333.71,333.701 184.29,0 333.69,-149.412 333.69,-333.701 0,-184.289 -149.4,-333.687 -333.69,-333.687 z m 0,708.478 c -206.99,0 -374.8,-167.81 -374.8,-374.791 0,-207 167.81,-374.801 374.8,-374.801 206.97,0 374.79,167.801 374.79,374.801 0,206.981 -167.82,374.791 -374.79,374.791" /><path
         id="path18"
         style="fill:#ffffff;fill-opacity:1;fill-rule:nonzero;stroke:none"
         d="m 3803.45,705.922 c -30.25,0 -54.76,24.539 -54.76,54.777 0,30.262 24.51,54.77 54.76,54.77 30.26,0 54.81,-24.508 54.81,-54.77 0,-30.238 -24.55,-54.777 -54.81,-54.777 z m 0,137.09 c -45.45,0 -82.32,-36.852 -82.32,-82.313 0,-45.469 36.87,-82.328 82.32,-82.328 45.47,0 82.33,36.859 82.33,82.328 0,45.461 -36.86,82.313 -82.33,82.313" /><path
         id="path20"
         style="fill:#ffffff;fill-opacity:1;fill-rule:nonzero;stroke:none"
         d="m 3909.16,760.699 v 0 c 0,-39.109 -21.31,-73.179 -52.88,-91.429 l 107,-185.309 c 95.5,55.269 159.82,158.437 159.82,276.738 z m -211.4,0 v 0 h -213.88 c 0,-118.301 64.3,-221.469 159.81,-276.738 l 106.97,185.269 c -31.58,18.29 -52.9,52.36 -52.9,91.469 z m 105.73,319.621 c -58.24,0 -112.77,-15.66 -159.78,-42.85 l 106.97,-185.298 c 15.55,8.988 33.53,14.219 52.77,14.219 19.25,0 37.27,-5.231 52.83,-14.219 l 106.98,185.298 c -47.01,27.19 -101.55,42.85 -159.77,42.85" /><path
         id="path22"
         style="fill:#ed395f;fill-opacity:1;fill-rule:nonzero;stroke:none"
         d="M 3042.78,0 H 1521.4 V 1521.4 H 3042.78 V 0" /><path
         id="path24"
         style="fill:#ffffff;fill-opacity:1;fill-rule:nonzero;stroke:none"
         d="m 2579.31,827.68 c -19.73,0 -35.74,17.769 -35.74,39.601 h 71.46 c 0,-21.832 -16.01,-39.601 -35.72,-39.601 z m 0,111.851 c 0,0 -43,-44.261 -43,-71.211 0,-26.898 19.25,-48.73 43,-48.73 23.77,0 43.01,21.832 43.01,48.73 0,26.95 -43.01,71.211 -43.01,71.211" /><path
         id="path26"
         style="fill:#ffffff;fill-opacity:1;fill-rule:nonzero;stroke:none"
         d="m 2524.02,732.898 c -11.55,0 -20.89,10.364 -20.89,23.153 h 41.79 c 0,-12.789 -9.36,-23.153 -20.9,-23.153 z m 0,65.442 c 0,0 -25.17,-25.91 -25.17,-41.629 0,-15.77 11.27,-28.531 25.17,-28.531 13.9,0 25.14,12.761 25.14,28.531 0,15.719 -25.14,41.629 -25.14,41.629" /><path
         id="path28"
         style="fill:#ffffff;fill-opacity:1;fill-rule:nonzero;stroke:none"
         d="m 2301.91,888.398 c -17.33,0 -31.37,-14.039 -31.37,-31.359 h 62.72 c 0,17.32 -14.04,31.359 -31.35,31.359" /><path
         id="path30"
         style="fill:#ffffff;fill-opacity:1;fill-rule:nonzero;stroke:none"
         d="m 2132.34,477 c -26.73,-39.539 -80.65,-49.969 -120.19,-23.25 -39.56,26.719 -49.99,80.629 -23.27,120.191 l 323.85,481.389 143.45,-96.908 z m 379.12,492.691 -209.5,141.519 c -9.22,6.24 -21.74,3.8 -27.96,-5.41 -6.23,-9.21 -3.81,-21.73 5.41,-27.94 l 6.63,-4.49 -323.85,-481.421 c -36.68,-54.25 -22.35,-128.238 31.92,-164.898 54.26,-36.66 128.27,-22.34 164.92,31.929 l 323.85,481.379 6.02,-4.058 c 9.21,-6.219 21.73,-3.781 27.96,5.418 6.22,9.23 3.81,21.73 -5.4,27.972" /><path
         id="path32"
         style="fill:#ffffff;fill-opacity:1;fill-rule:nonzero;stroke:none"
         d="m 2262.93,744.77 c -6.66,0 -12.06,5.402 -12.06,12.062 0,6.648 5.4,12.039 12.06,12.039 6.67,0 12.07,-5.391 12.07,-12.039 0,-6.66 -5.4,-12.062 -12.07,-12.062 z m -23.99,44.332 c -9.23,0 -16.71,7.5 -16.71,16.726 0,9.231 7.48,16.692 16.71,16.692 9.22,0 16.69,-7.461 16.69,-16.692 0,-9.226 -7.47,-16.726 -16.69,-16.726 z m 94.32,67.937 c 0,-17.309 -14.04,-31.359 -31.35,-31.359 -17.33,0 -31.37,14.05 -31.37,31.359 h -69.36 l -195.12,-290.73 c -20.99,-31.098 -12.79,-73.457 18.3,-94.489 31.11,-21 73.48,-12.808 94.49,18.282 l 248.17,366.937 h -33.76" /><path
         id="path34"
         style="fill:#68c8ed;fill-opacity:1;fill-rule:nonzero;stroke:none"
         d="M 1521.39,0 H 0 V 1521.39 H 1521.39 V 0" /><path
         id="path36"
         style="fill:#ffffff;fill-opacity:1;fill-rule:nonzero;stroke:none"
         d="m 738.051,1058.52 c 14.058,-54.77 -18.934,-110.559 -73.715,-124.622 -54.77,-14.078 -110.582,18.934 -124.633,73.702 -14.055,54.79 18.949,110.56 73.715,124.64 54.766,14.06 110.559,-18.92 124.633,-73.72" /><path
         id="path38"
         style="fill:#ffffff;fill-opacity:1;fill-rule:nonzero;stroke:none"
         d="m 415.129,561.441 c 40.391,39.571 105.223,38.891 144.781,-1.519 39.567,-40.422 38.891,-105.231 -1.515,-144.781 -40.411,-39.571 -105.219,-38.891 -144.809,1.519 -39.543,40.391 -38.859,105.211 1.543,144.781" /><path
         id="path40"
         style="fill:#ffffff;fill-opacity:1;fill-rule:nonzero;stroke:none"
         d="m 1007.08,530.32 c -54.482,15.211 -86.283,71.692 -71.088,126.149 15.207,54.472 71.698,86.293 126.138,71.09 54.49,-15.207 86.31,-71.7 71.09,-126.161 -15.21,-54.468 -71.69,-86.277 -126.14,-71.078" /><path
         id="path42"
         style="fill:#ffffff;fill-opacity:1;fill-rule:nonzero;stroke:none"
         d="M 814.078,740.891 C 827.406,688.98 796.121,636.082 744.211,622.75 c -51.926,-13.32 -104.785,17.961 -118.102,69.879 -13.336,51.902 17.922,104.769 69.832,118.109 51.911,13.321 104.813,-17.937 118.137,-69.847" /><path
         id="path44"
         style="fill:#ffffff;fill-opacity:1;fill-rule:nonzero;stroke:none"
         d="m 707.027,840.211 c 2.489,-9.66 -3.336,-19.531 -12.988,-22.012 v 0 c -9.668,-2.5 -19.519,3.34 -21.984,13.012 l -17.969,69.988 c -2.488,9.672 3.324,19.531 12.992,22.02 v 0 c 9.668,2.461 19.52,-3.36 22,-13.008 l 17.949,-70" /><path
         id="path46"
         style="fill:#ffffff;fill-opacity:1;fill-rule:nonzero;stroke:none"
         d="m 619.711,643.77 c 7.121,6.992 18.57,6.851 25.555,-0.27 v 0 c 6.953,-7.129 6.836,-18.578 -0.286,-25.57 l -51.628,-50.559 c -7.122,-6.98 -18.579,-6.851 -25.559,0.27 v 0 c -6.973,7.148 -6.855,18.57 0.266,25.55 l 51.652,50.579" /><path
         id="path48"
         style="fill:#ffffff;fill-opacity:1;fill-rule:nonzero;stroke:none"
         d="m 833.48,666.332 c -9.597,2.668 -15.218,12.648 -12.527,22.27 v 0 c 2.684,9.597 12.652,15.218 22.254,12.527 l 69.606,-19.41 c 9.609,-2.699 15.261,-12.68 12.554,-22.278 v 0 c -2.687,-9.609 -12.656,-15.242 -22.281,-12.55 l -69.606,19.441" /><path
         id="path50"
         style="fill:#62c89f;fill-opacity:1;fill-rule:nonzero;stroke:none"
         d="M 4564.17,1518.6 H 3042.79 V 3040 H 4564.17 V 1518.6" /><path
         id="path52"
         style="fill:#ffffff;fill-opacity:1;fill-rule:nonzero;stroke:none"
         d="m 3528.12,2313.84 c 63.42,88.49 176.58,128.66 281.57,99.93 l 25.36,-6.94 15.34,21.37 140.55,202.66 107.53,-77.07 -140.54,-202.66 -15.32,-21.4 14.74,-21.79 c 60.92,-90.19 59.22,-210.25 -4.19,-298.74 -58.16,-81.15 -157.95,-121.98 -256.12,-105.46 l -186.52,133.69 c -47.17,87.67 -40.55,195.28 17.6,276.41 z m -23.77,21.24 c -69.25,-96.62 -71.27,-220.97 -15.44,-317.61 l 196.16,-140.59 c 109.46,-21.85 226.57,20.02 295.8,116.62 73.48,102.51 71.39,236.26 4.71,334.95 l 142.27,205.09 c 8.9,-4.13 19.76,-1.55 25.69,6.71 6.71,9.35 4.56,22.38 -4.79,29.1 l -159.25,114.13 c -9.37,6.71 -22.38,4.56 -29.09,-4.79 -5.9,-8.28 -4.89,-19.41 1.93,-26.49 l -142.31,-205.1 c -114.88,31.43 -242.2,-9.55 -315.68,-112.02" /><path
         id="path54"
         style="fill:#ffffff;fill-opacity:1;fill-rule:nonzero;stroke:none"
         d="m 3769.94,2213.69 c 0.02,0.13 0.05,0.26 0.05,0.39 0,30.72 -24.92,55.65 -55.63,55.65 -30.71,0 -55.63,-24.93 -55.63,-55.65 0,-0.13 0.03,-0.26 0.05,-0.39 z m -166.51,-66.39 c 0,15.6 12.66,28.24 28.26,28.24 15.62,0 28.25,-12.64 28.25,-28.24 0,-15.6 -12.63,-28.24 -28.25,-28.24 -15.6,0 -28.26,12.64 -28.26,28.24 z m 68.54,-61.51 c 0,11.73 9.5,21.22 21.21,21.22 11.72,0 21.21,-9.49 21.21,-21.22 0,-11.7 -9.49,-21.2 -21.21,-21.2 -11.71,0 -21.21,9.5 -21.21,21.2 z m -176.68,71.75 c 0,-34.77 7.26,-67.82 20.29,-97.77 l 205.49,-147.31 c 6.7,-0.57 13.45,-1.02 20.29,-1.02 135.9,0 246.09,110.17 246.09,246.1 0,19.35 -2.46,38.09 -6.69,56.15 h -210.82 c -0.22,-30.54 -24.99,-55.23 -55.58,-55.23 -30.6,0 -55.38,24.69 -55.58,55.23 h -0.82 -156.01 c -4.22,-18.06 -6.66,-36.8 -6.66,-56.15" /><path
         id="path56"
         style="fill:#97d552;fill-opacity:1;fill-rule:nonzero;stroke:none"
         d="M 3042.78,1518.61 H 1521.4 V 3040 H 3042.78 V 1518.61" /><path
         id="path58"
         style="fill:#ffffff;fill-opacity:1;fill-rule:evenodd;stroke:none"
         d="m 2696.19,2392.03 c -16.69,56.87 -122.45,88.18 -261.67,79.99 3.95,100.82 -17.22,173.55 -62.22,187.52 -45.91,14.26 -106.02,-35.99 -160.77,-124.62 -97.95,80.66 -185.72,114.85 -229.8,78.99 -46.63,-38.02 -27,-144.77 40.81,-268.86 -108.06,-65.61 -170.17,-142.32 -154.49,-195.78 14.51,-49.5 94.58,-73.5 205.66,-70.37 -2.59,-96.82 18.61,-166.22 62.43,-179.82 45.34,-14.08 104.52,34.7 158.72,121.26 98.82,-78 188.55,-110.88 231.88,-75.61 42.97,35.02 25.52,128.88 -32.8,240.77 135.88,65.38 219.92,146.31 202.25,206.53 z m -682.41,182.58 c 28.35,23.11 99.6,-5.68 180.96,-68.38 -16.61,-29.93 -32.51,-63.34 -47.09,-99.46 -32.89,-13.08 -63.69,-27.51 -91.98,-42.77 -52.64,101.01 -71.8,186.23 -41.89,210.61 z m 91.41,-294.84 c -11.58,17.71 -22.33,35.25 -32.24,52.59 17.89,9.94 37.09,19.55 57.37,28.68 -4.5,-12.81 -8.83,-25.9 -12.99,-39.23 -4.39,-14.12 -8.4,-28.17 -12.14,-42.04 z m -188.5,-116.29 c -10.47,35.68 37.98,95.38 124.09,149.76 15.72,-26.31 33.43,-53.17 53.05,-80.16 -9.1,-41.24 -15.11,-80.8 -18.1,-117.29 -87.53,-0.79 -149.77,16.14 -159.04,47.69 z m 466.97,191.21 c -6.12,7.92 -12.37,15.79 -18.83,23.65 -12.32,15.18 -24.8,29.57 -37.27,43.62 22.55,4.09 44.57,7.16 65.92,9.25 -1.72,-23.92 -5.05,-49.69 -9.82,-76.52 z m -30.26,244.02 c 27.07,-8.4 41.86,-58.43 41.45,-130.05 -30.82,-3.32 -62.98,-8.52 -95.86,-15.67 -20.2,21.21 -40.35,40.74 -60.27,58.55 43,61.68 86.92,95.8 114.68,87.17 z m -132.21,-113.77 c 14.66,-12.3 29.52,-25.69 44.41,-39.89 -10.93,-2.8 -21.9,-5.71 -32.9,-8.96 -15.6,-4.57 -30.83,-9.51 -45.78,-14.7 10.94,22.9 22.46,44.32 34.27,63.55 z m -102.86,-284.31 c 5.04,-6.49 10.2,-12.96 15.44,-19.42 16.31,-19.99 32.89,-38.85 49.6,-56.89 -25.45,-3.63 -49.97,-6.05 -73.16,-7.38 0.8,25.97 3.45,54.08 8.12,83.69 z m 36.71,-240.7 c -25.76,7.98 -42.15,54.19 -44.79,120.89 32.16,2.45 66.29,6.95 101.83,13.61 17.49,-17.52 34.9,-33.74 52.18,-48.76 -40.65,-60.57 -81.84,-94.26 -109.22,-85.74 z m 126.88,113.59 c -10.31,9.07 -20.75,18.57 -31.27,28.79 17.81,3.96 35.92,8.51 54.17,13.51 -7.51,-14.89 -15.11,-29.14 -22.9,-42.3 z m 41,80.69 c -34.03,-9.73 -67.71,-17.54 -100.36,-23.51 -16.76,17.72 -33.59,36.87 -50.22,57.31 -16.02,19.65 -31.1,39.62 -45.26,59.59 4.76,21.51 10.56,43.49 17.48,65.77 6.81,21.91 14.35,43 22.46,63.14 22.71,8.92 46.55,17.16 71.43,24.44 19.1,5.58 38.07,10.42 56.84,14.57 20.34,-21.09 40.55,-43.57 60.12,-67.57 7.42,-9.11 14.52,-18.26 21.45,-27.34 -5.3,-23.91 -11.63,-48.43 -19.37,-73.36 -10.23,-32.96 -21.94,-64.16 -34.57,-93.04 z m 324.59,223.58 c 12.29,-41.77 -54.59,-108.27 -168.86,-164.25 -18.89,33.29 -41.08,67.8 -66.11,102.59 9.52,41.38 15.91,81.08 19.37,117.97 116.74,5.67 204.43,-18.04 215.6,-56.31 z m -243.22,-94.99 c 19.05,-27.61 35.75,-54.77 49.89,-80.75 -26.92,-12.13 -55.89,-23.65 -86.98,-34.09 8.48,22.09 16.52,45.06 23.9,68.85 4.81,15.46 9.15,30.8 13.19,45.99 z m 90.4,-298.77 c -30.21,-24.6 -100.91,0.11 -182.99,64.7 13.83,24.65 27.2,51.68 39.75,80.71 41.74,13.26 81.08,28.23 117.32,44.39 44.97,-92.1 55.31,-165.86 25.92,-189.8 v 0" /><path
         id="path60"
         style="fill:#ffffff;fill-opacity:1;fill-rule:evenodd;stroke:none"
         d="m 2272.81,2323.57 c -29.41,9.14 -60.65,-7.28 -69.79,-36.7 -9.13,-29.41 7.32,-60.64 36.72,-69.75 29.39,-9.13 60.6,7.27 69.76,36.68 9.13,29.42 -7.32,60.65 -36.69,69.77 v 0" /><path
         id="path62"
         style="fill:#6d97d6;fill-opacity:1;fill-rule:nonzero;stroke:none"
         d="M 1521.39,1518.61 H 0 V 3040 H 1521.39 V 1518.61" /><path
         id="path64"
         style="fill:#ffffff;fill-opacity:1;fill-rule:nonzero;stroke:none"
         d="m 477.973,1923.82 c 14.679,3.85 23.429,18.82 19.605,33.46 v 0 c -10.219,39.06 -15.199,73.74 -15.176,104.08 v 0 c 0.578,67.55 22.411,112.73 70.426,149.57 v 0 c 48.293,36.64 126.676,62.42 236.317,75.62 v 0 c 140.816,16.63 220.715,82.79 260.895,150.57 v 0 c 40.48,67.63 43.71,134.19 43.82,156.81 v 0 c 0,4.84 -0.19,7.75 -0.23,8.29 v 0 h -0.01 c -0.99,15.1 -14.04,26.55 -29.16,25.53 v 0 c -15.1,-1.01 -26.55,-14.08 -25.53,-29.19 v 0 c 0,0 0,0 0.04,-0.79 v 0 c 0.01,-0.78 0.05,-2.08 0.05,-3.84 v 0 c 0.09,-16.9 -3.04,-74.13 -35.95,-128.56 v 0 c -33.16,-54.26 -93.566,-108.44 -220.527,-124.38 v 0 C 667.996,2326.91 580.93,2300.48 519.828,2254.75 v 0 c -61.348,-45.54 -92.863,-112.94 -92.265,-193.39 v 0 c 0.035,-36.3 5.867,-75.46 16.964,-117.94 v 0 c 3.223,-12.32 14.336,-20.5 26.508,-20.5 v 0 c 2.293,0 4.645,0.3 6.938,0.9 v 0" /><path
         id="path66"
         style="fill:#ffffff;fill-opacity:1;fill-rule:nonzero;stroke:none"
         d="m 828.77,1842.61 c 46.468,54.81 73.718,115.95 73.601,182.83 v 0 c -0.269,95.93 -53.734,196.82 -163.266,312.38 v 0 c -67.132,71.02 -87.101,142.89 -87.308,205.24 v 0 c -0.176,62.21 21.496,115.34 37.976,140.22 v 0 -0.02 c 8.317,12.67 4.762,29.67 -7.914,37.96 v 0 c -12.621,8.31 -29.636,4.77 -37.953,-7.88 v 0 c -22.488,-34.65 -46.722,-95.45 -46.926,-170.28 v 0 c -0.199,-74.45 25.571,-162.34 102.372,-242.98 v 0 c 105.355,-110.85 148.503,-200.77 148.211,-274.64 v 0 c -0.102,-51.83 -20.079,-99.14 -60.7,-147.47 v 0 c -9.75,-11.59 -8.273,-28.87 3.278,-38.64 v 0 c 5.164,-4.33 11.425,-6.43 17.672,-6.43 v 0 c 7.792,0 15.546,3.29 20.957,9.71 v 0" /><path
         id="path68"
         style="fill:#ffffff;fill-opacity:1;fill-rule:nonzero;stroke:none"
         d="m 756.801,2622.36 c -4.836,-10.29 -0.395,-22.55 9.91,-27.36 l 149.129,-69.79 c 10.269,-4.83 22.523,-0.39 27.363,9.91 v 0 c 4.817,10.31 0.375,22.55 -9.918,27.36 l -149.113,69.81 c -10.305,4.81 -22.551,0.37 -27.371,-9.93 v 0" /><path
         id="path70"
         style="fill:#ffffff;fill-opacity:1;fill-rule:nonzero;stroke:none"
         d="m 710.348,2471.69 c -4.836,-10.28 -0.383,-22.55 9.902,-27.37 l 109.652,-51.3 c 10.274,-4.82 22.543,-0.41 27.368,9.89 v 0 c 4.832,10.31 0.343,22.55 -9.907,27.38 l -109.672,51.31 c -10.289,4.81 -22.554,0.38 -27.343,-9.91 v 0" /><path
         id="path72"
         style="fill:#ffffff;fill-opacity:1;fill-rule:nonzero;stroke:none"
         d="m 697.379,2563.96 c -4.801,-10.28 -0.375,-22.55 9.926,-27.36 l 201.742,-94.43 c 10.289,-4.83 22.551,-0.37 27.394,9.94 v 0 c 4.786,10.28 0.344,22.53 -9.957,27.35 l -201.742,94.42 c -10.277,4.83 -22.535,0.36 -27.363,-9.92 v 0" /><path
         id="path74"
         style="fill:#ffffff;fill-opacity:1;fill-rule:nonzero;stroke:none"
         d="m 546.559,2052.52 c 4.461,10.45 16.543,15.3 27.019,10.84 l 151.383,-64.74 c 10.453,-4.47 15.289,-16.56 10.824,-27.02 v 0 c -4.461,-10.46 -16.586,-15.29 -27.008,-10.82 l -151.375,64.72 c -10.453,4.48 -15.312,16.57 -10.843,27.02 v 0" /><path
         id="path76"
         style="fill:#ffffff;fill-opacity:1;fill-rule:nonzero;stroke:none"
         d="m 627.996,2187.52 c 4.442,10.47 16.547,15.31 27.024,10.84 l 111.289,-47.58 c 10.461,-4.47 15.328,-16.57 10.843,-27.02 v 0 c -4.472,-10.46 -16.582,-15.3 -27.035,-10.83 l -111.301,47.58 c -10.453,4.48 -15.296,16.56 -10.82,27.01 v 0" /><path
         id="path78"
         style="fill:#ffffff;fill-opacity:1;fill-rule:nonzero;stroke:none"
         d="m 550.543,2135.74 c 4.453,10.44 16.547,15.3 27.016,10.84 L 782.379,2059 c 10.437,-4.47 15.281,-16.57 10.82,-27.03 v 0 c -4.472,-10.44 -16.594,-15.3 -27.027,-10.83 l -204.793,87.58 c -10.465,4.45 -15.293,16.57 -10.836,27.02 v 0" /></g></g></svg>